%TF.GenerationSoftware,KiCad,Pcbnew,7.0.2-6a45011f42~172~ubuntu22.04.1*%
%TF.CreationDate,2023-04-27T13:30:21+02:00*%
%TF.ProjectId,Grup3_Tarda_Projecte_Netejaparabrises,47727570-335f-4546-9172-64615f50726f,1.4.27042023*%
%TF.SameCoordinates,Original*%
%TF.FileFunction,Copper,L4,Bot*%
%TF.FilePolarity,Positive*%
%FSLAX46Y46*%
G04 Gerber Fmt 4.6, Leading zero omitted, Abs format (unit mm)*
G04 Created by KiCad (PCBNEW 7.0.2-6a45011f42~172~ubuntu22.04.1) date 2023-04-27 13:30:21*
%MOMM*%
%LPD*%
G01*
G04 APERTURE LIST*
%TA.AperFunction,ComponentPad*%
%ADD10R,1.700000X1.700000*%
%TD*%
%TA.AperFunction,ComponentPad*%
%ADD11O,1.700000X1.700000*%
%TD*%
%TA.AperFunction,ComponentPad*%
%ADD12R,2.600000X2.600000*%
%TD*%
%TA.AperFunction,ComponentPad*%
%ADD13C,2.600000*%
%TD*%
%TA.AperFunction,ComponentPad*%
%ADD14C,2.100000*%
%TD*%
%TA.AperFunction,ComponentPad*%
%ADD15C,3.150000*%
%TD*%
%TA.AperFunction,ComponentPad*%
%ADD16C,3.600000*%
%TD*%
%TA.AperFunction,ComponentPad*%
%ADD17R,1.222000X1.222000*%
%TD*%
%TA.AperFunction,ComponentPad*%
%ADD18C,1.222000*%
%TD*%
%TA.AperFunction,ComponentPad*%
%ADD19R,3.200000X3.200000*%
%TD*%
%TA.AperFunction,ComponentPad*%
%ADD20O,3.200000X3.200000*%
%TD*%
%TA.AperFunction,ComponentPad*%
%ADD21R,2.200000X2.200000*%
%TD*%
%TA.AperFunction,ComponentPad*%
%ADD22O,2.200000X2.200000*%
%TD*%
%TA.AperFunction,ComponentPad*%
%ADD23R,1.905000X2.000000*%
%TD*%
%TA.AperFunction,ComponentPad*%
%ADD24O,1.905000X2.000000*%
%TD*%
%TA.AperFunction,ComponentPad*%
%ADD25R,10.000000X5.600000*%
%TD*%
%TA.AperFunction,ComponentPad*%
%ADD26C,4.000000*%
%TD*%
%TA.AperFunction,ComponentPad*%
%ADD27R,1.600000X1.600000*%
%TD*%
%TA.AperFunction,ComponentPad*%
%ADD28C,1.600000*%
%TD*%
%TA.AperFunction,ViaPad*%
%ADD29C,0.800000*%
%TD*%
%TA.AperFunction,Conductor*%
%ADD30C,0.500000*%
%TD*%
%TA.AperFunction,Conductor*%
%ADD31C,0.200000*%
%TD*%
G04 APERTURE END LIST*
D10*
%TO.P,J7,1,Pin_1*%
%TO.N,+VCC*%
X78680000Y-34605000D03*
D11*
%TO.P,J7,2,Pin_2*%
%TO.N,/Analog/Vsensor*%
X76140000Y-34605000D03*
%TD*%
D12*
%TO.P,J8,1,Pin_1*%
%TO.N,VMOT1-*%
X85255000Y-153645000D03*
D13*
%TO.P,J8,2,Pin_2*%
%TO.N,VMOT1+*%
X90335000Y-153645000D03*
%TD*%
D12*
%TO.P,J10,1,Pin_1*%
%TO.N,GNDPWR*%
X58795000Y-99845000D03*
D13*
%TO.P,J10,2,Pin_2*%
%TO.N,VBOMBA1*%
X58795000Y-104925000D03*
%TD*%
D14*
%TO.P,K3,1*%
%TO.N,VBAT*%
X99725000Y-129230000D03*
%TO.P,K3,2*%
%TO.N,/Potencia/Vc_m1*%
X103925000Y-129230000D03*
D15*
%TO.P,K3,3*%
%TO.N,GNDPWR*%
X93725000Y-125930000D03*
D16*
%TO.P,K3,4*%
%TO.N,VMOT1+*%
X96025000Y-141330000D03*
D15*
%TO.P,K3,5*%
%TO.N,EN1*%
X93725000Y-129230000D03*
D16*
%TO.P,K3,A4*%
%TO.N,N/C*%
X107025000Y-141330000D03*
%TO.P,K3,B4*%
X109725000Y-127030000D03*
%TD*%
D17*
%TO.P,RPOT1,1,1*%
%TO.N,/Analog/Vsensibilitat*%
X69830000Y-41304500D03*
D18*
%TO.P,RPOT1,2,2*%
%TO.N,GND*%
X72370000Y-43844500D03*
%TO.P,RPOT1,3,3*%
X69830000Y-46384500D03*
%TD*%
D19*
%TO.P,D12,1,K*%
%TO.N,VBAT*%
X208350000Y-116940000D03*
D20*
%TO.P,D12,2,A*%
%TO.N,/Potencia/Vc_lu*%
X193110000Y-116940000D03*
%TD*%
D14*
%TO.P,K2,1*%
%TO.N,VBAT*%
X114210000Y-92900000D03*
%TO.P,K2,2*%
%TO.N,/Potencia/Vc_EN1*%
X118410000Y-92900000D03*
D15*
%TO.P,K2,3*%
%TO.N,GNDPWR*%
X108210000Y-89600000D03*
D16*
%TO.P,K2,4*%
%TO.N,EN1*%
X110510000Y-105000000D03*
D15*
%TO.P,K2,5*%
%TO.N,VBAT*%
X108210000Y-92900000D03*
D16*
%TO.P,K2,A4*%
%TO.N,N/C*%
X121510000Y-105000000D03*
%TO.P,K2,B4*%
X124210000Y-90700000D03*
%TD*%
D19*
%TO.P,D6,1,K*%
%TO.N,VBAT*%
X115620000Y-116340000D03*
D20*
%TO.P,D6,2,A*%
%TO.N,/Potencia/Vc_m1*%
X100380000Y-116340000D03*
%TD*%
D12*
%TO.P,J9,1,Pin_1*%
%TO.N,VMOT2-*%
X145705000Y-153645000D03*
D13*
%TO.P,J9,2,Pin_2*%
%TO.N,VMOT2+*%
X150785000Y-153645000D03*
%TD*%
D21*
%TO.P,D1,1,K*%
%TO.N,VBAT*%
X66440000Y-70200000D03*
D22*
%TO.P,D1,2,A*%
%TO.N,/Alimentacio/Vbat*%
X66440000Y-60040000D03*
%TD*%
D14*
%TO.P,K4,1*%
%TO.N,VBAT*%
X68760000Y-129230000D03*
%TO.P,K4,2*%
%TO.N,/Potencia/Vc_m1*%
X72960000Y-129230000D03*
D15*
%TO.P,K4,3*%
%TO.N,EN1*%
X62760000Y-125930000D03*
D16*
%TO.P,K4,4*%
%TO.N,VMOT1-*%
X65060000Y-141330000D03*
D15*
%TO.P,K4,5*%
%TO.N,GNDPWR*%
X62760000Y-129230000D03*
D16*
%TO.P,K4,A4*%
%TO.N,N/C*%
X76060000Y-141330000D03*
%TO.P,K4,B4*%
X78760000Y-127030000D03*
%TD*%
D10*
%TO.P,J2,1,Pin_1*%
%TO.N,/Digital/Vboto1*%
X201390000Y-34780000D03*
D11*
%TO.P,J2,2,Pin_2*%
%TO.N,/Digital/Vboto2*%
X198850000Y-34780000D03*
%TO.P,J2,3,Pin_3*%
%TO.N,/Digital/Vboto3*%
X196310000Y-34780000D03*
%TO.P,J2,4,Pin_4*%
%TO.N,GND*%
X193770000Y-34780000D03*
%TO.P,J2,5,Pin_5*%
%TO.N,/Digital/Vboto4*%
X191230000Y-34780000D03*
%TO.P,J2,6,Pin_6*%
%TO.N,GND*%
X188690000Y-34780000D03*
%TD*%
D23*
%TO.P,IC1,1*%
%TO.N,VBAT*%
X90740000Y-56460000D03*
D24*
%TO.P,IC1,2*%
%TO.N,GNDPWR*%
X88200000Y-56460000D03*
D25*
X88190000Y-73110000D03*
D24*
%TO.P,IC1,3*%
%TO.N,+VCC*%
X85660000Y-56460000D03*
%TD*%
D26*
%TO.P,J6,0,PAD*%
%TO.N,unconnected-(J6-PAD-Pad0)*%
X181445000Y-40240000D03*
X156445000Y-40240000D03*
D27*
%TO.P,J6,1,1*%
%TO.N,unconnected-(J6-Pad1)*%
X163405000Y-40540000D03*
D28*
%TO.P,J6,2,2*%
%TO.N,/Digital/CAN+*%
X166175000Y-40540000D03*
%TO.P,J6,3,3*%
%TO.N,unconnected-(J6-Pad3)*%
X168945000Y-40540000D03*
%TO.P,J6,4,4*%
%TO.N,unconnected-(J6-Pad4)*%
X171715000Y-40540000D03*
%TO.P,J6,5,5*%
%TO.N,unconnected-(J6-Pad5)*%
X174485000Y-40540000D03*
%TO.P,J6,6,6*%
%TO.N,GND*%
X164790000Y-37700000D03*
%TO.P,J6,7,7*%
%TO.N,/Digital/CAN-*%
X167560000Y-37700000D03*
%TO.P,J6,8,8*%
%TO.N,unconnected-(J6-Pad8)*%
X170330000Y-37700000D03*
%TO.P,J6,9,9*%
%TO.N,unconnected-(J6-Pad9)*%
X173100000Y-37700000D03*
%TD*%
D19*
%TO.P,D4,1,K*%
%TO.N,VBAT*%
X94440000Y-80480000D03*
D20*
%TO.P,D4,2,A*%
%TO.N,/Potencia/Vc_b1*%
X79200000Y-80480000D03*
%TD*%
D10*
%TO.P,J13,1,Pin_1*%
%TO.N,GND*%
X93860000Y-34600000D03*
D11*
%TO.P,J13,2,Pin_2*%
%TO.N,/Digital/Vfin_front*%
X96400000Y-34600000D03*
%TD*%
D19*
%TO.P,D10,1,K*%
%TO.N,VBAT*%
X123950000Y-116430000D03*
D20*
%TO.P,D10,2,A*%
%TO.N,/Potencia/Vc_m2*%
X139190000Y-116430000D03*
%TD*%
D10*
%TO.P,J3,1,Pin_1*%
%TO.N,/Digital/PROG_MCLR*%
X213810000Y-61490000D03*
D11*
%TO.P,J3,2,Pin_2*%
%TO.N,+VCC*%
X213810000Y-64030000D03*
%TO.P,J3,3,Pin_3*%
%TO.N,GND*%
X213810000Y-66570000D03*
%TO.P,J3,4,Pin_4*%
%TO.N,PGD*%
X213810000Y-69110000D03*
%TO.P,J3,5,Pin_5*%
%TO.N,PGC*%
X213810000Y-71650000D03*
%TD*%
D12*
%TO.P,J1,1,Pin_1*%
%TO.N,/Alimentacio/Vbat*%
X58575000Y-62790000D03*
D13*
%TO.P,J1,2,Pin_2*%
%TO.N,GNDPWR*%
X58575000Y-67870000D03*
%TD*%
D10*
%TO.P,J14,1,Pin_1*%
%TO.N,GND*%
X101210000Y-34600000D03*
D11*
%TO.P,J14,2,Pin_2*%
%TO.N,/Digital/Vfin_back*%
X103750000Y-34600000D03*
%TD*%
D14*
%TO.P,K1,1*%
%TO.N,VBAT*%
X78760000Y-92900000D03*
%TO.P,K1,2*%
%TO.N,/Potencia/Vc_b1*%
X82960000Y-92900000D03*
D15*
%TO.P,K1,3*%
%TO.N,GNDPWR*%
X72760000Y-89600000D03*
D16*
%TO.P,K1,4*%
%TO.N,VBOMBA1*%
X75060000Y-105000000D03*
D15*
%TO.P,K1,5*%
%TO.N,VBAT*%
X72760000Y-92900000D03*
D16*
%TO.P,K1,A4*%
%TO.N,N/C*%
X86060000Y-105000000D03*
%TO.P,K1,B4*%
X88760000Y-90700000D03*
%TD*%
D26*
%TO.P,J5,0,PAD*%
%TO.N,unconnected-(J5-PAD-Pad0)*%
X136120000Y-40210000D03*
X111120000Y-40210000D03*
D27*
%TO.P,J5,1,1*%
%TO.N,unconnected-(J5-Pad1)*%
X118080000Y-40510000D03*
D28*
%TO.P,J5,2,2*%
%TO.N,/Digital/Rx*%
X120850000Y-40510000D03*
%TO.P,J5,3,3*%
%TO.N,/Digital/Tx*%
X123620000Y-40510000D03*
%TO.P,J5,4,4*%
%TO.N,unconnected-(J5-Pad4)*%
X126390000Y-40510000D03*
%TO.P,J5,5,5*%
%TO.N,GND*%
X129160000Y-40510000D03*
%TO.P,J5,6,6*%
%TO.N,unconnected-(J5-Pad6)*%
X119465000Y-37670000D03*
%TO.P,J5,7,7*%
%TO.N,unconnected-(J5-Pad7)*%
X122235000Y-37670000D03*
%TO.P,J5,8,8*%
%TO.N,unconnected-(J5-Pad8)*%
X125005000Y-37670000D03*
%TO.P,J5,9,9*%
%TO.N,unconnected-(J5-Pad9)*%
X127775000Y-37670000D03*
%TD*%
D14*
%TO.P,K9,1*%
%TO.N,VBAT*%
X192790000Y-129200000D03*
%TO.P,K9,2*%
%TO.N,/Potencia/Vc_lu*%
X196990000Y-129200000D03*
D15*
%TO.P,K9,3*%
%TO.N,GNDPWR*%
X186790000Y-125900000D03*
D16*
%TO.P,K9,4*%
%TO.N,VLUNETA*%
X189090000Y-141300000D03*
D15*
%TO.P,K9,5*%
%TO.N,VBAT*%
X186790000Y-129200000D03*
D16*
%TO.P,K9,A4*%
%TO.N,N/C*%
X200090000Y-141300000D03*
%TO.P,K9,B4*%
X202790000Y-127000000D03*
%TD*%
D12*
%TO.P,J11,1,Pin_1*%
%TO.N,GNDPWR*%
X210005000Y-104985000D03*
D13*
%TO.P,J11,2,Pin_2*%
%TO.N,VBOMBA2*%
X210005000Y-99905000D03*
%TD*%
D19*
%TO.P,D9,1,K*%
%TO.N,VBAT*%
X162710000Y-80410000D03*
D20*
%TO.P,D9,2,A*%
%TO.N,/Potencia/Vc_EN2*%
X147470000Y-80410000D03*
%TD*%
D14*
%TO.P,K7,1*%
%TO.N,VBAT*%
X128990000Y-129105000D03*
%TO.P,K7,2*%
%TO.N,/Potencia/Vc_m2*%
X133190000Y-129105000D03*
D15*
%TO.P,K7,3*%
%TO.N,EN2*%
X122990000Y-125805000D03*
D16*
%TO.P,K7,4*%
%TO.N,VMOT2-*%
X125290000Y-141205000D03*
D15*
%TO.P,K7,5*%
%TO.N,GNDPWR*%
X122990000Y-129105000D03*
D16*
%TO.P,K7,A4*%
%TO.N,N/C*%
X136290000Y-141205000D03*
%TO.P,K7,B4*%
X138990000Y-126905000D03*
%TD*%
D19*
%TO.P,D11,1,K*%
%TO.N,VBAT*%
X177990000Y-116640000D03*
D20*
%TO.P,D11,2,A*%
%TO.N,/Potencia/Vc_m2*%
X162750000Y-116640000D03*
%TD*%
D19*
%TO.P,D7,1,K*%
%TO.N,VBAT*%
X64630000Y-116340000D03*
D20*
%TO.P,D7,2,A*%
%TO.N,/Potencia/Vc_m1*%
X79870000Y-116340000D03*
%TD*%
D19*
%TO.P,D8,1,K*%
%TO.N,VBAT*%
X195640000Y-80340000D03*
D20*
%TO.P,D8,2,A*%
%TO.N,/Potencia/Vc_b2*%
X180400000Y-80340000D03*
%TD*%
D14*
%TO.P,K5,1*%
%TO.N,VBAT*%
X179090000Y-92820000D03*
%TO.P,K5,2*%
%TO.N,/Potencia/Vc_b2*%
X183290000Y-92820000D03*
D15*
%TO.P,K5,3*%
%TO.N,GNDPWR*%
X173090000Y-89520000D03*
D16*
%TO.P,K5,4*%
%TO.N,VBOMBA2*%
X175390000Y-104920000D03*
D15*
%TO.P,K5,5*%
%TO.N,VBAT*%
X173090000Y-92820000D03*
D16*
%TO.P,K5,A4*%
%TO.N,N/C*%
X186390000Y-104920000D03*
%TO.P,K5,B4*%
X189090000Y-90620000D03*
%TD*%
D14*
%TO.P,K6,1*%
%TO.N,VBAT*%
X146250000Y-92740000D03*
%TO.P,K6,2*%
%TO.N,/Potencia/Vc_EN2*%
X150450000Y-92740000D03*
D15*
%TO.P,K6,3*%
%TO.N,GNDPWR*%
X140250000Y-89440000D03*
D16*
%TO.P,K6,4*%
%TO.N,EN2*%
X142550000Y-104840000D03*
D15*
%TO.P,K6,5*%
%TO.N,VBAT*%
X140250000Y-92740000D03*
D16*
%TO.P,K6,A4*%
%TO.N,N/C*%
X153550000Y-104840000D03*
%TO.P,K6,B4*%
X156250000Y-90540000D03*
%TD*%
D12*
%TO.P,J12,1,Pin_1*%
%TO.N,GNDPWR*%
X194005000Y-153645000D03*
D13*
%TO.P,J12,2,Pin_2*%
%TO.N,VLUNETA*%
X199085000Y-153645000D03*
%TD*%
D19*
%TO.P,D5,1,K*%
%TO.N,VBAT*%
X130540000Y-80425000D03*
D20*
%TO.P,D5,2,A*%
%TO.N,/Potencia/Vc_EN1*%
X115300000Y-80425000D03*
%TD*%
D10*
%TO.P,J4,1,Pin_1*%
%TO.N,/Digital/Vsw*%
X213770000Y-52610000D03*
D11*
%TO.P,J4,2,Pin_2*%
%TO.N,/Digital/MCLR*%
X213770000Y-55150000D03*
%TO.P,J4,3,Pin_3*%
%TO.N,/Digital/PROG_MCLR*%
X213770000Y-57690000D03*
%TD*%
D14*
%TO.P,K8,1*%
%TO.N,VBAT*%
X161950000Y-129190000D03*
%TO.P,K8,2*%
%TO.N,/Potencia/Vc_m2*%
X166150000Y-129190000D03*
D15*
%TO.P,K8,3*%
%TO.N,GNDPWR*%
X155950000Y-125890000D03*
D16*
%TO.P,K8,4*%
%TO.N,VMOT2+*%
X158250000Y-141290000D03*
D15*
%TO.P,K8,5*%
%TO.N,EN2*%
X155950000Y-129190000D03*
D16*
%TO.P,K8,A4*%
%TO.N,N/C*%
X169250000Y-141290000D03*
%TO.P,K8,B4*%
X171950000Y-126990000D03*
%TD*%
D29*
%TO.N,GNDPWR*%
X67370000Y-77430000D03*
X139170000Y-78430000D03*
X67160000Y-82320000D03*
X154250000Y-114980000D03*
X150600000Y-114640000D03*
X152870000Y-114540000D03*
X169950000Y-76740000D03*
X77190000Y-59960000D03*
X182890000Y-113420000D03*
X60312862Y-56791624D03*
X67090000Y-79720000D03*
X74390000Y-60010000D03*
X181590000Y-118750000D03*
X87660000Y-115250000D03*
X140110000Y-82140000D03*
X65840000Y-78630000D03*
X152880000Y-112530000D03*
X65910000Y-76520000D03*
X166850000Y-82540000D03*
X184180000Y-112620000D03*
X90240000Y-112890000D03*
X103100000Y-80050000D03*
X151660000Y-113610000D03*
X92120000Y-118190000D03*
X154350000Y-118340000D03*
X167680000Y-80170000D03*
X170740000Y-78520000D03*
X80550000Y-61190000D03*
X68880000Y-78450000D03*
X63522862Y-56791624D03*
X153770000Y-113580000D03*
X150610000Y-112610000D03*
X150600000Y-116640000D03*
X87790000Y-112930000D03*
X171480000Y-82370000D03*
X70040000Y-77450000D03*
X62462862Y-56791624D03*
X104940000Y-78310000D03*
X101750000Y-81170000D03*
X107040000Y-82410000D03*
X103160000Y-82500000D03*
X181620000Y-117130000D03*
X135220000Y-79370000D03*
X70760000Y-82250000D03*
X149470000Y-117720000D03*
X149480000Y-115570000D03*
X88900000Y-114100000D03*
X106540000Y-77820000D03*
X166890000Y-78450000D03*
X101810000Y-76950000D03*
X181650000Y-112700000D03*
X184180000Y-114080000D03*
X68850000Y-76480000D03*
X91200000Y-114040000D03*
X88790000Y-116330000D03*
X137400000Y-77030000D03*
X87690000Y-117570000D03*
X185020000Y-115150000D03*
X150580000Y-118880000D03*
X181620000Y-115580000D03*
X135350000Y-77130000D03*
X181670000Y-114080000D03*
X168910000Y-78500000D03*
X81950000Y-59990000D03*
X185340000Y-118630000D03*
X75790000Y-61210000D03*
X103370000Y-77710000D03*
X79100000Y-59990000D03*
X65860000Y-81110000D03*
X149470000Y-113580000D03*
X101920000Y-78910000D03*
X61382862Y-56791624D03*
X136350000Y-78180000D03*
X88630000Y-118690000D03*
X105130000Y-76880000D03*
X135980000Y-82210000D03*
X182910000Y-114820000D03*
%TO.N,+VCC*%
X80150000Y-50440000D03*
X78700000Y-49190000D03*
X101790000Y-36960000D03*
X85450000Y-47390000D03*
X72000000Y-50540000D03*
X77300000Y-50440000D03*
X85600000Y-54140000D03*
X101800000Y-39730000D03*
X91100000Y-48940000D03*
X100530000Y-38340000D03*
X162300000Y-56390000D03*
X93139030Y-38245671D03*
X84150000Y-48790000D03*
X140600000Y-71340000D03*
X162010000Y-50940000D03*
X89750000Y-50190000D03*
X182050000Y-66630000D03*
X92500000Y-50190000D03*
X182080000Y-60180000D03*
X73300000Y-51890000D03*
X85450000Y-50290000D03*
X163600000Y-54990000D03*
X84300000Y-52790000D03*
X141800000Y-69940000D03*
X85500000Y-51290000D03*
X94449030Y-39645671D03*
X79750000Y-46540000D03*
X140550000Y-68440000D03*
X141180000Y-64160000D03*
X78750000Y-44840000D03*
X182080000Y-63490000D03*
X94440000Y-36864671D03*
X158960000Y-62780000D03*
X73300000Y-49090000D03*
X182090000Y-56740000D03*
X78750000Y-48090000D03*
%TO.N,GND*%
X145550000Y-54680000D03*
X77250000Y-52490000D03*
X73850000Y-41440000D03*
X139320000Y-64170000D03*
X78750000Y-53790000D03*
X62472862Y-54481624D03*
X74100000Y-36640000D03*
X94000000Y-50140000D03*
X157160000Y-59780000D03*
X60312862Y-54491624D03*
X74150000Y-39390000D03*
X135070000Y-45600000D03*
X96800000Y-50190000D03*
X148930000Y-48950000D03*
X131720000Y-53550000D03*
X88900000Y-52890000D03*
X133410000Y-45390000D03*
X74950000Y-39890000D03*
X139630000Y-59260000D03*
X95450000Y-48940000D03*
X87550000Y-50290000D03*
X87550000Y-47440000D03*
X147300000Y-54720000D03*
X137150000Y-69840000D03*
X158900000Y-54890000D03*
X138180000Y-49360000D03*
X61362862Y-54491624D03*
X136530000Y-49340000D03*
X139870000Y-49380000D03*
X135180000Y-54910000D03*
X143240000Y-49320000D03*
X138400000Y-71340000D03*
X74950000Y-43140000D03*
X148740000Y-45600000D03*
X63522862Y-54481624D03*
X141610000Y-49400000D03*
X135190000Y-47150000D03*
X87600000Y-54140000D03*
X72850000Y-38040000D03*
X80150000Y-52540000D03*
X148940000Y-53110000D03*
X87650000Y-51290000D03*
X136870000Y-54900000D03*
X147200000Y-45290000D03*
X160150000Y-56340000D03*
X131880000Y-45700000D03*
X131840000Y-50290000D03*
X160750000Y-50940000D03*
X140910000Y-59250000D03*
X148960000Y-51790000D03*
X131720000Y-47390000D03*
X135210000Y-48710000D03*
X144780000Y-49260000D03*
X145590000Y-45710000D03*
X145410000Y-47670000D03*
X131740000Y-51940000D03*
X142170000Y-59240000D03*
X133610000Y-54910000D03*
X143700000Y-54730000D03*
X131740000Y-48770000D03*
X148760000Y-54660000D03*
X148930000Y-50430000D03*
X132160000Y-54870000D03*
X88850000Y-48940000D03*
X148890000Y-47350000D03*
X138400000Y-68440000D03*
%TO.N,VBAT*%
X74390000Y-57860000D03*
X75740000Y-56560000D03*
X81900000Y-57790000D03*
X77240000Y-57810000D03*
X79100000Y-57840000D03*
X80450000Y-56540000D03*
%TO.N,/Digital/MCLR*%
X176980000Y-49570000D03*
%TO.N,/Digital/Vboto1*%
X146880000Y-61240000D03*
X168860000Y-63310000D03*
%TO.N,/Digital/Vboto2*%
X147940000Y-59170000D03*
X168370000Y-60750000D03*
%TO.N,/Digital/Vboto3*%
X168220000Y-58230000D03*
X145840000Y-59270000D03*
%TO.N,/Digital/Vboto4*%
X166350000Y-56660000D03*
X143770000Y-59320000D03*
%TO.N,/Digital/Vfin_back*%
X103840000Y-42810000D03*
X103840000Y-47090000D03*
%TO.N,DriverLuneta*%
X139150000Y-60730000D03*
X187982500Y-108822500D03*
%TO.N,EnableM1*%
X129640000Y-71930000D03*
X137080000Y-59650000D03*
%TO.N,EnableM2*%
X136140000Y-62130000D03*
X136050000Y-72940000D03*
%TO.N,STB*%
X146230000Y-43560000D03*
X158265000Y-47595000D03*
%TO.N,/Digital/Vfin_front*%
X96460000Y-46960000D03*
X96480000Y-42890000D03*
%TO.N,/Digital/Tx*%
X128170000Y-69470000D03*
X123620000Y-60580000D03*
%TO.N,DriverM2*%
X156950000Y-108440000D03*
X147250000Y-70900000D03*
%TO.N,DriverM1*%
X98010000Y-107250000D03*
X148500000Y-68440000D03*
%TO.N,/Digital/CAN+*%
X162571232Y-34561232D03*
%TO.N,/Digital/CAN-*%
X161828768Y-33818768D03*
%TD*%
D30*
%TO.N,/Digital/MCLR*%
X208190000Y-49570000D02*
X213770000Y-55150000D01*
X176980000Y-49570000D02*
X208190000Y-49570000D01*
%TO.N,/Digital/Vboto1*%
X149980000Y-64340000D02*
X146880000Y-61240000D01*
X167830000Y-64340000D02*
X149980000Y-64340000D01*
X168860000Y-63310000D02*
X167830000Y-64340000D01*
%TO.N,/Digital/Vboto2*%
X166550000Y-58930000D02*
X168370000Y-60750000D01*
X153777918Y-58930000D02*
X166550000Y-58930000D01*
X153537918Y-59170000D02*
X153777918Y-58930000D01*
X148110000Y-59170000D02*
X147940000Y-59170000D01*
X148110000Y-59170000D02*
X153537918Y-59170000D01*
%TO.N,/Digital/Vboto3*%
X146880000Y-58230000D02*
X145840000Y-59270000D01*
X168220000Y-58230000D02*
X146880000Y-58230000D01*
%TO.N,/Digital/Vboto4*%
X145560000Y-57530000D02*
X143770000Y-59320000D01*
X166350000Y-56660000D02*
X165480000Y-57530000D01*
X165480000Y-57530000D02*
X145560000Y-57530000D01*
%TO.N,/Digital/Vfin_back*%
X103840000Y-42810000D02*
X103840000Y-47090000D01*
%TO.N,DriverLuneta*%
X181210000Y-93980000D02*
X181210000Y-91910000D01*
X187982500Y-108822500D02*
X189770000Y-107035000D01*
X146010000Y-67590000D02*
X139150000Y-60730000D01*
X172430000Y-86360000D02*
X165420000Y-79350000D01*
X165420000Y-79350000D02*
X165420000Y-76320000D01*
X151239138Y-67590000D02*
X146010000Y-67590000D01*
X165420000Y-76320000D02*
X163200000Y-74100000D01*
X189770000Y-107035000D02*
X189770000Y-102540000D01*
X163200000Y-74100000D02*
X157749138Y-74100000D01*
X181210000Y-91910000D02*
X175660000Y-86360000D01*
X175660000Y-86360000D02*
X172430000Y-86360000D01*
X157749138Y-74100000D02*
X151239138Y-67590000D01*
X189770000Y-102540000D02*
X181210000Y-93980000D01*
%TO.N,EnableM1*%
X129640000Y-67090000D02*
X137080000Y-59650000D01*
X129640000Y-71930000D02*
X129640000Y-67090000D01*
%TO.N,EnableM2*%
X136020000Y-72910000D02*
X136050000Y-72940000D01*
X136020000Y-62250000D02*
X136020000Y-72910000D01*
X136140000Y-62130000D02*
X136020000Y-62250000D01*
%TO.N,STB*%
X146230000Y-43560000D02*
X154230000Y-43560000D01*
X154230000Y-43560000D02*
X158265000Y-47595000D01*
%TO.N,/Digital/Vfin_front*%
X96460000Y-42910000D02*
X96480000Y-42890000D01*
X96460000Y-46960000D02*
X96460000Y-42910000D01*
%TO.N,/Digital/Tx*%
X123620000Y-64920000D02*
X128170000Y-69470000D01*
X123620000Y-60580000D02*
X123620000Y-64920000D01*
%TO.N,DriverM2*%
X156940000Y-96600000D02*
X159910000Y-93630000D01*
X156950000Y-108440000D02*
X156950000Y-106930000D01*
X159910000Y-83560000D02*
X147250000Y-70900000D01*
X156940000Y-106920000D02*
X156940000Y-96600000D01*
X159910000Y-93630000D02*
X159910000Y-83560000D01*
X156950000Y-106930000D02*
X156940000Y-106920000D01*
%TO.N,DriverM1*%
X128340000Y-87667968D02*
X128340000Y-91680000D01*
X147567968Y-68440000D02*
X128340000Y-87667968D01*
X103430000Y-101830000D02*
X98010000Y-107250000D01*
X128340000Y-91680000D02*
X118190000Y-101830000D01*
X148500000Y-68440000D02*
X147567968Y-68440000D01*
X118190000Y-101830000D02*
X103430000Y-101830000D01*
D31*
%TO.N,/Digital/CAN+*%
X163492372Y-34268769D02*
X166175000Y-36951397D01*
X166175000Y-36951397D02*
X166175000Y-40540000D01*
X162571232Y-34561232D02*
X162863695Y-34268769D01*
X162863695Y-34268769D02*
X163492372Y-34268769D01*
%TO.N,/Digital/CAN-*%
X163678768Y-33818768D02*
X167560000Y-37700000D01*
X161828768Y-33818768D02*
X163678768Y-33818768D01*
%TD*%
%TA.AperFunction,Conductor*%
%TO.N,/Digital/CAN-*%
G36*
X166506225Y-36500250D02*
G01*
X167854321Y-36956890D01*
X167861057Y-36962790D01*
X167861649Y-36971726D01*
X167861382Y-36972437D01*
X167562562Y-37696212D01*
X167556237Y-37702551D01*
X167556212Y-37702562D01*
X166832437Y-38001382D01*
X166823482Y-38001371D01*
X166817157Y-37995032D01*
X166816890Y-37994321D01*
X166718059Y-37702551D01*
X166478275Y-36994659D01*
X166477672Y-36991460D01*
X166475512Y-36944722D01*
X166475500Y-36944182D01*
X166475500Y-36923555D01*
X166474364Y-36917482D01*
X166474177Y-36915871D01*
X166472585Y-36881406D01*
X166464523Y-36863147D01*
X166463726Y-36860574D01*
X166460061Y-36840964D01*
X166441897Y-36811628D01*
X166441142Y-36810195D01*
X166427206Y-36778631D01*
X166413098Y-36764524D01*
X166411423Y-36762410D01*
X166400917Y-36745442D01*
X166394308Y-36740451D01*
X166390277Y-36734869D01*
X166360251Y-36646226D01*
X166360843Y-36637290D01*
X166363057Y-36634202D01*
X166494200Y-36503059D01*
X166502472Y-36499633D01*
X166506225Y-36500250D01*
G37*
%TD.AperFunction*%
%TD*%
%TA.AperFunction,Conductor*%
%TO.N,/Digital/Tx*%
G36*
X124005939Y-60579964D02*
G01*
X124014202Y-60583412D01*
X124017608Y-60591693D01*
X124017408Y-60593820D01*
X123871790Y-61370456D01*
X123866897Y-61377956D01*
X123860290Y-61380000D01*
X123379710Y-61380000D01*
X123371437Y-61376573D01*
X123368210Y-61370456D01*
X123222591Y-60593820D01*
X123224435Y-60585057D01*
X123231935Y-60580164D01*
X123234052Y-60579964D01*
X123620000Y-60579000D01*
X124005939Y-60579964D01*
G37*
%TD.AperFunction*%
%TD*%
%TA.AperFunction,Conductor*%
%TO.N,/Digital/Vboto2*%
G36*
X167989104Y-60013021D02*
G01*
X168641237Y-60459216D01*
X168646130Y-60466716D01*
X168644286Y-60475479D01*
X168642924Y-60477124D01*
X168370707Y-60750707D01*
X168097124Y-61022924D01*
X168088843Y-61026330D01*
X168080578Y-61022882D01*
X168079216Y-61021237D01*
X167633021Y-60369104D01*
X167631177Y-60360341D01*
X167634402Y-60354226D01*
X167974225Y-60014403D01*
X167982497Y-60010977D01*
X167989104Y-60013021D01*
G37*
%TD.AperFunction*%
%TD*%
%TA.AperFunction,Conductor*%
%TO.N,STB*%
G36*
X146243817Y-43162590D02*
G01*
X147020457Y-43308210D01*
X147027956Y-43313103D01*
X147030000Y-43319710D01*
X147030000Y-43800289D01*
X147026573Y-43808562D01*
X147020456Y-43811789D01*
X146243820Y-43957408D01*
X146235057Y-43955564D01*
X146230164Y-43948064D01*
X146229964Y-43945946D01*
X146229000Y-43560000D01*
X146229964Y-43174059D01*
X146233412Y-43165797D01*
X146241693Y-43162391D01*
X146243817Y-43162590D01*
G37*
%TD.AperFunction*%
%TD*%
%TA.AperFunction,Conductor*%
%TO.N,/Digital/CAN-*%
G36*
X161992636Y-33453713D02*
G01*
X162621568Y-33715768D01*
X162627887Y-33722113D01*
X162628768Y-33726568D01*
X162628768Y-33910967D01*
X162625341Y-33919240D01*
X162621568Y-33921767D01*
X162527724Y-33960868D01*
X162524751Y-33961668D01*
X162414468Y-33976188D01*
X162268391Y-34036695D01*
X162177695Y-34106287D01*
X162175073Y-34107805D01*
X161992638Y-34183820D01*
X161983683Y-34183839D01*
X161977339Y-34177522D01*
X161947640Y-34106287D01*
X161829643Y-33823267D01*
X161829623Y-33814318D01*
X161977340Y-33460010D01*
X161983686Y-33453694D01*
X161992636Y-33453713D01*
G37*
%TD.AperFunction*%
%TD*%
%TA.AperFunction,Conductor*%
%TO.N,/Digital/CAN+*%
G36*
X163238522Y-34168640D02*
G01*
X163246755Y-34172158D01*
X163250091Y-34180339D01*
X163250091Y-34364533D01*
X163247380Y-34372022D01*
X162862262Y-34834247D01*
X162854333Y-34838410D01*
X162845784Y-34835747D01*
X162845014Y-34835046D01*
X162573685Y-34564673D01*
X162570244Y-34556406D01*
X162570244Y-34556356D01*
X162570713Y-34368769D01*
X162571202Y-34173031D01*
X162574650Y-34164768D01*
X162582931Y-34161362D01*
X162583024Y-34161362D01*
X163238522Y-34168640D01*
G37*
%TD.AperFunction*%
%TD*%
%TA.AperFunction,Conductor*%
%TO.N,/Digital/Vfin_back*%
G36*
X104088563Y-46293427D02*
G01*
X104091790Y-46299544D01*
X104237408Y-47076179D01*
X104235564Y-47084942D01*
X104228064Y-47089835D01*
X104225937Y-47090035D01*
X103840000Y-47091000D01*
X103454062Y-47090035D01*
X103445797Y-47086587D01*
X103442391Y-47078306D01*
X103442591Y-47076179D01*
X103588210Y-46299544D01*
X103593103Y-46292044D01*
X103599710Y-46290000D01*
X104080290Y-46290000D01*
X104088563Y-46293427D01*
G37*
%TD.AperFunction*%
%TD*%
%TA.AperFunction,Conductor*%
%TO.N,/Digital/MCLR*%
G36*
X176993817Y-49172590D02*
G01*
X177770457Y-49318210D01*
X177777956Y-49323103D01*
X177780000Y-49329710D01*
X177780000Y-49810289D01*
X177776573Y-49818562D01*
X177770456Y-49821789D01*
X176993820Y-49967408D01*
X176985057Y-49965564D01*
X176980164Y-49958064D01*
X176979964Y-49955946D01*
X176979000Y-49570000D01*
X176979964Y-49184059D01*
X176983412Y-49175797D01*
X176991693Y-49172391D01*
X176993817Y-49172590D01*
G37*
%TD.AperFunction*%
%TD*%
%TA.AperFunction,Conductor*%
%TO.N,EnableM2*%
G36*
X136142171Y-62129905D02*
G01*
X136499050Y-62278694D01*
X136505368Y-62285041D01*
X136505469Y-62293692D01*
X136272884Y-62898630D01*
X136266716Y-62905122D01*
X136261963Y-62906131D01*
X135781256Y-62906131D01*
X135772983Y-62902704D01*
X135769565Y-62894883D01*
X135746327Y-62293692D01*
X135740468Y-62142119D01*
X135743572Y-62133722D01*
X135751707Y-62129978D01*
X135752094Y-62129969D01*
X136137648Y-62129005D01*
X136142171Y-62129905D01*
G37*
%TD.AperFunction*%
%TD*%
%TA.AperFunction,Conductor*%
%TO.N,EnableM1*%
G36*
X129888563Y-71133427D02*
G01*
X129891790Y-71139544D01*
X130037408Y-71916179D01*
X130035564Y-71924942D01*
X130028064Y-71929835D01*
X130025937Y-71930035D01*
X129640000Y-71931000D01*
X129254062Y-71930035D01*
X129245797Y-71926587D01*
X129242391Y-71918306D01*
X129242591Y-71916179D01*
X129388210Y-71139544D01*
X129393103Y-71132044D01*
X129399710Y-71130000D01*
X129880290Y-71130000D01*
X129888563Y-71133427D01*
G37*
%TD.AperFunction*%
%TD*%
%TA.AperFunction,Conductor*%
%TO.N,/Digital/Vboto2*%
G36*
X147953817Y-58772590D02*
G01*
X148730457Y-58918210D01*
X148737956Y-58923103D01*
X148740000Y-58929710D01*
X148740000Y-59410289D01*
X148736573Y-59418562D01*
X148730456Y-59421789D01*
X147953820Y-59567408D01*
X147945057Y-59565564D01*
X147940164Y-59558064D01*
X147939964Y-59555946D01*
X147939000Y-59170000D01*
X147939964Y-58784059D01*
X147943412Y-58775797D01*
X147951693Y-58772391D01*
X147953817Y-58772590D01*
G37*
%TD.AperFunction*%
%TD*%
%TA.AperFunction,Conductor*%
%TO.N,DriverLuneta*%
G36*
X139439421Y-60457117D02*
G01*
X139440783Y-60458762D01*
X139886978Y-61110895D01*
X139888822Y-61119658D01*
X139885595Y-61125775D01*
X139545775Y-61465595D01*
X139537502Y-61469022D01*
X139530895Y-61466978D01*
X138878762Y-61020783D01*
X138873869Y-61013283D01*
X138875713Y-61004520D01*
X138877075Y-61002875D01*
X139149293Y-60729293D01*
X139422875Y-60457075D01*
X139431156Y-60453669D01*
X139439421Y-60457117D01*
G37*
%TD.AperFunction*%
%TD*%
%TA.AperFunction,Conductor*%
%TO.N,/Digital/Tx*%
G36*
X127789104Y-68733021D02*
G01*
X128441237Y-69179216D01*
X128446130Y-69186716D01*
X128444286Y-69195479D01*
X128442924Y-69197124D01*
X128170707Y-69470707D01*
X127897124Y-69742924D01*
X127888843Y-69746330D01*
X127880578Y-69742882D01*
X127879216Y-69741237D01*
X127433021Y-69089104D01*
X127431177Y-69080341D01*
X127434402Y-69074226D01*
X127774225Y-68734403D01*
X127782497Y-68730977D01*
X127789104Y-68733021D01*
G37*
%TD.AperFunction*%
%TD*%
%TA.AperFunction,Conductor*%
%TO.N,DriverM1*%
G36*
X148494941Y-68044435D02*
G01*
X148499834Y-68051935D01*
X148500034Y-68054062D01*
X148501000Y-68440000D01*
X148500035Y-68825937D01*
X148496587Y-68834202D01*
X148488306Y-68837608D01*
X148486179Y-68837408D01*
X147709544Y-68691789D01*
X147702044Y-68686896D01*
X147700000Y-68680289D01*
X147700000Y-68199710D01*
X147703427Y-68191437D01*
X147709542Y-68188210D01*
X148486179Y-68042591D01*
X148494941Y-68044435D01*
G37*
%TD.AperFunction*%
%TD*%
%TA.AperFunction,Conductor*%
%TO.N,/Digital/Vfin_front*%
G36*
X96708563Y-46163427D02*
G01*
X96711790Y-46169544D01*
X96857408Y-46946179D01*
X96855564Y-46954942D01*
X96848064Y-46959835D01*
X96845937Y-46960035D01*
X96460000Y-46961000D01*
X96074062Y-46960035D01*
X96065797Y-46956587D01*
X96062391Y-46948306D01*
X96062591Y-46946179D01*
X96208210Y-46169544D01*
X96213103Y-46162044D01*
X96219710Y-46160000D01*
X96700290Y-46160000D01*
X96708563Y-46163427D01*
G37*
%TD.AperFunction*%
%TD*%
%TA.AperFunction,Conductor*%
%TO.N,DriverM2*%
G36*
X157198563Y-107643427D02*
G01*
X157201790Y-107649544D01*
X157347408Y-108426179D01*
X157345564Y-108434942D01*
X157338064Y-108439835D01*
X157335937Y-108440035D01*
X156950000Y-108441000D01*
X156564062Y-108440035D01*
X156555797Y-108436587D01*
X156552391Y-108428306D01*
X156552591Y-108426179D01*
X156698210Y-107649544D01*
X156703103Y-107642044D01*
X156709710Y-107640000D01*
X157190290Y-107640000D01*
X157198563Y-107643427D01*
G37*
%TD.AperFunction*%
%TD*%
%TA.AperFunction,Conductor*%
%TO.N,/Digital/Vboto3*%
G36*
X146235775Y-58534404D02*
G01*
X146575595Y-58874224D01*
X146579022Y-58882497D01*
X146576978Y-58889104D01*
X146130783Y-59541237D01*
X146123283Y-59546130D01*
X146114520Y-59544286D01*
X146112875Y-59542924D01*
X145839293Y-59270707D01*
X145567075Y-58997124D01*
X145563669Y-58988843D01*
X145567117Y-58980578D01*
X145568756Y-58979220D01*
X146220895Y-58533020D01*
X146229658Y-58531177D01*
X146235775Y-58534404D01*
G37*
%TD.AperFunction*%
%TD*%
%TA.AperFunction,Conductor*%
%TO.N,/Digital/Vfin_back*%
G36*
X104225939Y-42809964D02*
G01*
X104234202Y-42813412D01*
X104237608Y-42821693D01*
X104237408Y-42823820D01*
X104091790Y-43600456D01*
X104086897Y-43607956D01*
X104080290Y-43610000D01*
X103599710Y-43610000D01*
X103591437Y-43606573D01*
X103588210Y-43600456D01*
X103442591Y-42823820D01*
X103444435Y-42815057D01*
X103451935Y-42810164D01*
X103454052Y-42809964D01*
X103840000Y-42809000D01*
X104225939Y-42809964D01*
G37*
%TD.AperFunction*%
%TD*%
%TA.AperFunction,Conductor*%
%TO.N,/Digital/Vboto3*%
G36*
X168214942Y-57834435D02*
G01*
X168219835Y-57841935D01*
X168220035Y-57844062D01*
X168221000Y-58230000D01*
X168220035Y-58615937D01*
X168216587Y-58624202D01*
X168208306Y-58627608D01*
X168206179Y-58627408D01*
X167429544Y-58481789D01*
X167422044Y-58476896D01*
X167420000Y-58470289D01*
X167420000Y-57989710D01*
X167423427Y-57981437D01*
X167429542Y-57978210D01*
X168206180Y-57832591D01*
X168214942Y-57834435D01*
G37*
%TD.AperFunction*%
%TD*%
%TA.AperFunction,Conductor*%
%TO.N,/Digital/Vboto4*%
G36*
X166075479Y-56385713D02*
G01*
X166077124Y-56387075D01*
X166350707Y-56659293D01*
X166622924Y-56932875D01*
X166626330Y-56941156D01*
X166622882Y-56949421D01*
X166621237Y-56950783D01*
X165969104Y-57396978D01*
X165960341Y-57398822D01*
X165954224Y-57395595D01*
X165614404Y-57055775D01*
X165610977Y-57047502D01*
X165613021Y-57040895D01*
X166059217Y-56388761D01*
X166066716Y-56383869D01*
X166075479Y-56385713D01*
G37*
%TD.AperFunction*%
%TD*%
%TA.AperFunction,Conductor*%
%TO.N,DriverM2*%
G36*
X147539421Y-70627117D02*
G01*
X147540783Y-70628762D01*
X147986978Y-71280895D01*
X147988822Y-71289658D01*
X147985595Y-71295775D01*
X147645775Y-71635595D01*
X147637502Y-71639022D01*
X147630895Y-71636978D01*
X146978762Y-71190783D01*
X146973869Y-71183283D01*
X146975713Y-71174520D01*
X146977075Y-71172875D01*
X147249293Y-70899293D01*
X147522875Y-70627075D01*
X147531156Y-70623669D01*
X147539421Y-70627117D01*
G37*
%TD.AperFunction*%
%TD*%
%TA.AperFunction,Conductor*%
%TO.N,/Digital/CAN+*%
G36*
X166276003Y-38943427D02*
G01*
X166278220Y-38946518D01*
X166908574Y-40222658D01*
X166909166Y-40231594D01*
X166903266Y-40238330D01*
X166902574Y-40238644D01*
X166179490Y-40539134D01*
X166170536Y-40539144D01*
X165447425Y-40238644D01*
X165441100Y-40232305D01*
X165441111Y-40223350D01*
X165441415Y-40222678D01*
X166071780Y-38946517D01*
X166078516Y-38940618D01*
X166082270Y-38940000D01*
X166267730Y-38940000D01*
X166276003Y-38943427D01*
G37*
%TD.AperFunction*%
%TD*%
%TA.AperFunction,Conductor*%
%TO.N,/Digital/Vboto1*%
G36*
X168585479Y-63035713D02*
G01*
X168587124Y-63037075D01*
X168860707Y-63309293D01*
X169132924Y-63582875D01*
X169136330Y-63591156D01*
X169132882Y-63599421D01*
X169131237Y-63600783D01*
X168479104Y-64046978D01*
X168470341Y-64048822D01*
X168464224Y-64045595D01*
X168124404Y-63705775D01*
X168120977Y-63697502D01*
X168123021Y-63690895D01*
X168569217Y-63038761D01*
X168576716Y-63033869D01*
X168585479Y-63035713D01*
G37*
%TD.AperFunction*%
%TD*%
%TA.AperFunction,Conductor*%
%TO.N,DriverLuneta*%
G36*
X188378275Y-108086904D02*
G01*
X188718095Y-108426724D01*
X188721522Y-108434997D01*
X188719478Y-108441604D01*
X188273283Y-109093737D01*
X188265783Y-109098630D01*
X188257020Y-109096786D01*
X188255375Y-109095424D01*
X187981793Y-108823207D01*
X187709575Y-108549624D01*
X187706169Y-108541343D01*
X187709617Y-108533078D01*
X187711256Y-108531720D01*
X188363395Y-108085520D01*
X188372158Y-108083677D01*
X188378275Y-108086904D01*
G37*
%TD.AperFunction*%
%TD*%
%TA.AperFunction,Conductor*%
%TO.N,DriverM1*%
G36*
X98405775Y-106514404D02*
G01*
X98745595Y-106854224D01*
X98749022Y-106862497D01*
X98746978Y-106869104D01*
X98300783Y-107521237D01*
X98293283Y-107526130D01*
X98284520Y-107524286D01*
X98282875Y-107522924D01*
X98009293Y-107250707D01*
X97737075Y-106977124D01*
X97733669Y-106968843D01*
X97737117Y-106960578D01*
X97738756Y-106959220D01*
X98390895Y-106513020D01*
X98399658Y-106511177D01*
X98405775Y-106514404D01*
G37*
%TD.AperFunction*%
%TD*%
%TA.AperFunction,Conductor*%
%TO.N,STB*%
G36*
X157884104Y-46858021D02*
G01*
X158536237Y-47304216D01*
X158541130Y-47311716D01*
X158539286Y-47320479D01*
X158537924Y-47322124D01*
X158265707Y-47595707D01*
X157992124Y-47867924D01*
X157983843Y-47871330D01*
X157975578Y-47867882D01*
X157974216Y-47866237D01*
X157528021Y-47214104D01*
X157526177Y-47205341D01*
X157529402Y-47199226D01*
X157869225Y-46859403D01*
X157877497Y-46855977D01*
X157884104Y-46858021D01*
G37*
%TD.AperFunction*%
%TD*%
%TA.AperFunction,Conductor*%
%TO.N,/Digital/Vboto4*%
G36*
X144165775Y-58584404D02*
G01*
X144505595Y-58924224D01*
X144509022Y-58932497D01*
X144506978Y-58939104D01*
X144060783Y-59591237D01*
X144053283Y-59596130D01*
X144044520Y-59594286D01*
X144042875Y-59592924D01*
X143769293Y-59320707D01*
X143497075Y-59047124D01*
X143493669Y-59038843D01*
X143497117Y-59030578D01*
X143498756Y-59029220D01*
X144150895Y-58583020D01*
X144159658Y-58581177D01*
X144165775Y-58584404D01*
G37*
%TD.AperFunction*%
%TD*%
%TA.AperFunction,Conductor*%
%TO.N,EnableM2*%
G36*
X136268989Y-72149394D02*
G01*
X136272110Y-72155009D01*
X136417301Y-72777281D01*
X136415844Y-72786116D01*
X136410409Y-72790738D01*
X136052175Y-72940093D01*
X136047644Y-72940994D01*
X135663567Y-72940033D01*
X135655302Y-72936585D01*
X135651896Y-72928304D01*
X135652027Y-72926585D01*
X135672558Y-72790738D01*
X135768495Y-72155919D01*
X135773121Y-72148250D01*
X135780065Y-72145967D01*
X136260716Y-72145967D01*
X136268989Y-72149394D01*
G37*
%TD.AperFunction*%
%TD*%
%TA.AperFunction,Conductor*%
%TO.N,/Digital/Vboto1*%
G36*
X147169421Y-60967117D02*
G01*
X147170783Y-60968762D01*
X147616978Y-61620895D01*
X147618822Y-61629658D01*
X147615595Y-61635775D01*
X147275775Y-61975595D01*
X147267502Y-61979022D01*
X147260895Y-61976978D01*
X146608762Y-61530783D01*
X146603869Y-61523283D01*
X146605713Y-61514520D01*
X146607075Y-61512875D01*
X146879293Y-61239293D01*
X147152875Y-60967075D01*
X147161156Y-60963669D01*
X147169421Y-60967117D01*
G37*
%TD.AperFunction*%
%TD*%
%TA.AperFunction,Conductor*%
%TO.N,/Digital/MCLR*%
G36*
X212752016Y-53774359D02*
G01*
X212757565Y-53776798D01*
X214084807Y-54360099D01*
X214091003Y-54366565D01*
X214090914Y-54375276D01*
X213772562Y-55146214D01*
X213766237Y-55152553D01*
X213766214Y-55152562D01*
X212995276Y-55470914D01*
X212986321Y-55470905D01*
X212980099Y-55464807D01*
X212394360Y-54132018D01*
X212394168Y-54123066D01*
X212396796Y-54119040D01*
X212739039Y-53776797D01*
X212747311Y-53773371D01*
X212752016Y-53774359D01*
G37*
%TD.AperFunction*%
%TD*%
%TA.AperFunction,Conductor*%
%TO.N,/Digital/Vfin_front*%
G36*
X96482171Y-42889905D02*
G01*
X96840551Y-43039320D01*
X96846869Y-43045667D01*
X96847483Y-43052601D01*
X96712001Y-43676804D01*
X96706897Y-43684162D01*
X96700567Y-43686022D01*
X96219944Y-43686022D01*
X96211671Y-43682595D01*
X96208397Y-43676208D01*
X96082213Y-42903551D01*
X96084262Y-42894833D01*
X96091874Y-42890118D01*
X96093722Y-42889965D01*
X96477648Y-42889005D01*
X96482171Y-42889905D01*
G37*
%TD.AperFunction*%
%TD*%
%TA.AperFunction,Conductor*%
%TO.N,EnableM1*%
G36*
X136805479Y-59375713D02*
G01*
X136807124Y-59377075D01*
X137080707Y-59649293D01*
X137352924Y-59922875D01*
X137356330Y-59931156D01*
X137352882Y-59939421D01*
X137351237Y-59940783D01*
X136699104Y-60386978D01*
X136690341Y-60388822D01*
X136684224Y-60385595D01*
X136344404Y-60045775D01*
X136340977Y-60037502D01*
X136343021Y-60030895D01*
X136789217Y-59378761D01*
X136796716Y-59373869D01*
X136805479Y-59375713D01*
G37*
%TD.AperFunction*%
%TD*%
M02*
