M48
; DRILL file {KiCad 7.0.2-6a45011f42~172~ubuntu22.04.1} date jue 27 abr 2023 13:25:57
; FORMAT={-:-/ absolute / inch / decimal}
; #@! TF.CreationDate,2023-04-27T13:25:57+02:00
; #@! TF.GenerationSoftware,Kicad,Pcbnew,7.0.2-6a45011f42~172~ubuntu22.04.1
; #@! TF.FileFunction,Plated,1,4,PTH
FMAT,2
INCH
; #@! TA.AperFunction,Plated,PTH,ViaDrill
T1C0.0157
; #@! TA.AperFunction,Plated,PTH,ComponentDrill
T2C0.0281
; #@! TA.AperFunction,Plated,PTH,ComponentDrill
T3C0.0394
; #@! TA.AperFunction,Plated,PTH,ComponentDrill
T4C0.0433
; #@! TA.AperFunction,Plated,PTH,ComponentDrill
T5C0.0512
; #@! TA.AperFunction,Plated,PTH,ComponentDrill
T6C0.0551
; #@! TA.AperFunction,Plated,PTH,ComponentDrill
T7C0.0630
; #@! TA.AperFunction,Plated,PTH,ComponentDrill
T8C0.0866
; #@! TA.AperFunction,Plated,PTH,ComponentDrill
T9C0.0945
; #@! TA.AperFunction,Plated,PTH,ComponentDrill
T10C0.1260
; #@! TA.AperFunction,Plated,PTH,ComponentDrill
T11C0.1457
%
G90
G05
T1
X2.3745Y-2.1453
X2.3745Y-2.2359
X2.4159Y-2.1453
X2.4166Y-2.2359
X2.4592Y-2.2359
X2.4596Y-2.1449
X2.5009Y-2.1449
X2.5009Y-2.2359
X2.5921Y-3.0957
X2.5929Y-3.1933
X2.5949Y-3.0126
X2.6413Y-3.1386
X2.6441Y-3.2409
X2.6524Y-3.0484
X2.7106Y-3.011
X2.7118Y-3.0886
X2.7575Y-3.0492
X2.7858Y-3.2382
X2.8346Y-1.9898
X2.8681Y-1.4976
X2.8858Y-1.9327
X2.8858Y-2.0429
X2.9075Y-1.6315
X2.9173Y-1.4425
X2.9193Y-1.5508
X2.9287Y-2.278
X2.9287Y-2.3626
X2.9508Y-1.5705
X2.9508Y-1.6984
X2.9819Y-2.2268
X2.9839Y-2.4098
X3.039Y-2.3606
X3.0409Y-2.276
X3.0413Y-2.0665
X3.0433Y-1.9858
X3.0984Y-1.9366
X3.1004Y-1.7654
X3.1004Y-1.8933
X3.1004Y-2.1177
X3.1142Y-2.2772
X3.1142Y-2.3618
X3.1398Y-1.8323
X3.1555Y-1.9858
X3.1555Y-2.0685
X3.1673Y-2.226
X3.1713Y-2.4091
X3.2244Y-2.2752
X3.2264Y-2.3618
X3.313Y-1.9209
X3.3189Y-2.0783
X3.3642Y-1.8657
X3.3642Y-1.9799
X3.3661Y-2.0193
X3.3701Y-2.1315
X3.4469Y-1.8677
X3.4469Y-1.9799
X3.4488Y-2.1315
X3.4508Y-2.0193
X3.4512Y-4.5374
X3.4524Y-4.6287
X3.4563Y-4.4461
X3.4894Y-4.6728
X3.4957Y-4.5799
X3.498Y-1.9268
X3.5Y-2.0823
X3.5Y-4.4921
X3.5335Y-1.976
X3.5528Y-4.4445
X3.5866Y-1.9268
X3.5906Y-4.4898
X3.6268Y-4.6531
X3.6417Y-1.976
X3.6669Y-1.5057
X3.7008Y-1.974
X3.7181Y-1.4514
X3.7185Y-1.5609
X3.7579Y-1.9268
X3.7976Y-1.8488
X3.7984Y-1.6886
X3.811Y-1.976
X3.8587Y-4.2224
X3.9579Y-1.5094
X4.0059Y-3.1957
X4.0075Y-1.4551
X4.0079Y-1.5642
X4.0083Y-3.0295
X4.0126Y-3.1067
X4.0591Y-3.1516
X4.0614Y-3.248
X4.0697Y-3.0594
X4.0882Y-1.6854
X4.0882Y-1.8539
X4.1315Y-3.0831
X4.139Y-3.0268
X4.1945Y-3.0638
X4.2142Y-3.2445
X4.8669Y-2.385
X5.0461Y-2.735
X5.1039Y-2.8319
X5.1858Y-1.8657
X5.1858Y-2.1083
X5.1866Y-1.9201
X5.1866Y-2.0449
X5.1906Y-1.9799
X5.1921Y-1.7992
X5.2031Y-2.1602
X5.2524Y-1.787
X5.2602Y-2.1618
X5.3177Y-1.7953
X5.322Y-2.1618
X5.3224Y-1.8563
X5.3232Y-1.9177
X5.3236Y-3.1248
X5.3287Y-3.0366
X5.3535Y-3.2366
X5.3563Y-2.8717
X5.3598Y-2.4461
X5.3681Y-3.078
X5.3752Y-1.9425
X5.3886Y-2.1614
X5.3969Y-2.3484
X5.3996Y-2.7496
X5.4094Y-3.0327
X5.4402Y-1.9433
X5.4488Y-2.6945
X5.4488Y-2.8087
X5.4783Y-2.3909
X5.4791Y-3.0878
X5.485Y-2.5264
X5.4972Y-2.3331
X5.5067Y-1.9441
X5.5161Y-3.2339
X5.5335Y-2.6945
X5.5354Y-2.8087
X5.5476Y-2.3327
X5.5583Y-2.526
X5.5752Y-1.9449
X5.5827Y-2.7535
X5.5972Y-2.3323
X5.6394Y-1.9417
X5.6575Y-2.1547
X5.6602Y-2.3354
X5.7Y-1.9394
X5.7248Y-1.8768
X5.7303Y-2.1528
X5.7319Y-1.7996
X5.7417Y-2.3335
X5.7571Y-1.715
X5.7827Y-2.411
X5.7953Y-1.7831
X5.7972Y-2.7913
X5.7992Y-2.1543
X5.8244Y-2.3295
X5.8465Y-2.6945
X5.8559Y-1.7953
X5.8567Y-2.152
X5.8618Y-1.8642
X5.8634Y-1.9272
X5.8634Y-1.9854
X5.8638Y-2.0909
X5.8646Y-2.039
X5.8846Y-4.4717
X5.8846Y-4.6346
X5.885Y-4.55
X5.9283Y-4.6803
X5.9291Y-4.5134
X5.9291Y-4.5921
X5.9295Y-4.4335
X5.9709Y-4.4728
X6.0185Y-4.5094
X6.0189Y-4.4303
X6.0539Y-4.4717
X6.0728Y-4.5268
X6.0768Y-4.6591
X6.1791Y-4.2693
X6.1874Y-2.3535
X6.2309Y-1.8738
X6.2559Y-2.161
X6.2583Y-2.4717
X6.3051Y-2.2181
X6.3287Y-2.0055
X6.3712Y-1.3314
X6.3783Y-2.0055
X6.3898Y-2.2201
X6.4004Y-1.3607
X6.4409Y-2.165
X6.5492Y-2.2307
X6.5689Y-3.2496
X6.5705Y-3.0886
X6.6016Y-3.1563
X6.6228Y-2.2925
X6.6287Y-2.3917
X6.648Y-2.4925
X6.65Y-3.0906
X6.6909Y-3.0213
X6.722Y-3.0913
X6.7512Y-3.2429
X6.9677Y-1.9516
X7.1492Y-4.6752
X7.1504Y-4.5504
X7.1504Y-4.6114
X7.1516Y-4.437
X7.1524Y-4.4913
X7.1673Y-2.6232
X7.1685Y-2.3693
X7.1685Y-2.4996
X7.1689Y-2.2339
X7.2004Y-4.4654
X7.2012Y-4.5205
X7.2512Y-4.4339
X7.2512Y-4.4913
X7.2843Y-4.5335
X7.2969Y-4.6705
X7.4009Y-4.2844
T2
X2.7492Y-1.6262
X2.7492Y-1.8262
X2.8492Y-1.7262
T3
X2.9976Y-1.3624
X3.0976Y-1.3624
X3.6953Y-1.3622
X3.7953Y-1.3622
X3.9846Y-1.3622
X4.0846Y-1.3622
X4.6488Y-1.5949
X4.7033Y-1.4831
X4.7579Y-1.5949
X4.8124Y-1.4831
X4.8669Y-1.5949
X4.9215Y-1.4831
X4.976Y-1.5949
X5.0305Y-1.4831
X5.085Y-1.5949
X6.4333Y-1.5961
X6.4878Y-1.4843
X6.5423Y-1.5961
X6.5969Y-1.4843
X6.6514Y-1.5961
X6.7059Y-1.4843
X6.7604Y-1.5961
X6.815Y-1.4843
X6.8695Y-1.5961
X7.4287Y-1.3693
X7.5287Y-1.3693
X7.6287Y-1.3693
X7.7287Y-1.3693
X7.8287Y-1.3693
X7.9287Y-1.3693
X8.4161Y-2.0713
X8.4161Y-2.1713
X8.4161Y-2.2713
X8.4177Y-2.4209
X8.4177Y-2.5209
X8.4177Y-2.6209
X8.4177Y-2.7209
X8.4177Y-2.8209
T4
X2.6157Y-2.3638
X2.6157Y-2.7638
X3.3724Y-2.2228
X3.4724Y-2.2228
X3.5724Y-2.2228
T5
X2.3061Y-2.472
X2.3061Y-2.672
X2.3148Y-3.9309
X2.3148Y-4.1309
X3.3565Y-6.049
X3.5565Y-6.049
X5.7364Y-6.049
X5.9364Y-6.049
X7.638Y-6.049
X7.838Y-6.049
X8.2679Y-3.9333
X8.2679Y-4.1333
T6
X2.7071Y-5.0878
X2.8724Y-5.0878
X3.1008Y-3.6575
X3.2661Y-3.6575
X3.9262Y-5.0878
X4.0915Y-5.0878
X4.4965Y-3.6575
X4.6618Y-3.6575
X5.0783Y-5.0829
X5.2437Y-5.0829
X5.7579Y-3.6512
X5.9232Y-3.6512
X6.376Y-5.0862
X6.5413Y-5.0862
X7.0508Y-3.6543
X7.2161Y-3.6543
X7.5902Y-5.0866
X7.7555Y-5.0866
T7
X2.5445Y-4.5803
X3.1181Y-3.1685
X3.1445Y-4.5803
X3.7181Y-3.1685
X3.952Y-4.5803
X4.5394Y-3.1663
X4.552Y-4.5803
X4.8799Y-4.5839
X5.1394Y-3.1663
X5.4799Y-4.5839
X5.8059Y-3.1657
X6.4059Y-3.1657
X6.4075Y-4.5921
X7.0075Y-4.5921
X7.1024Y-3.163
X7.6028Y-4.6039
X7.7024Y-3.163
X8.2028Y-4.6039
T8
X2.4709Y-4.9579
X2.4709Y-5.0878
X2.8646Y-3.5276
X2.8646Y-3.6575
X3.69Y-4.9579
X3.69Y-5.0878
X4.2602Y-3.5276
X4.2602Y-3.6575
X4.8421Y-4.953
X4.8421Y-5.0829
X5.5217Y-3.5213
X5.5217Y-3.6512
X6.1398Y-4.9563
X6.1398Y-5.0862
X6.8146Y-3.5244
X6.8146Y-3.6543
X7.3539Y-4.9567
X7.3539Y-5.0866
T9
X2.5614Y-5.5642
X2.9551Y-4.1339
X2.9945Y-5.5642
X3.1008Y-5.0012
X3.3882Y-4.1339
X3.4945Y-3.5709
X3.7805Y-5.5642
X4.2136Y-5.5642
X4.3199Y-5.0012
X4.3508Y-4.1339
X4.7839Y-4.1339
X4.8902Y-3.5709
X4.9327Y-5.5593
X5.3657Y-5.5593
X5.472Y-4.9963
X5.6122Y-4.1276
X6.0453Y-4.1276
X6.1516Y-3.5646
X6.2303Y-5.5626
X6.6634Y-5.5626
X6.7697Y-4.9996
X6.9051Y-4.1307
X7.3382Y-4.1307
X7.4445Y-3.5677
X7.4445Y-5.563
X7.8776Y-5.563
X7.9839Y-5.0
T10
X4.3748Y-1.5831
X5.3591Y-1.5831
X6.1593Y-1.5843
X7.1435Y-1.5843
T11
X3.472Y-2.8783
T0
M30
