%TF.GenerationSoftware,KiCad,Pcbnew,7.0.2-6a45011f42~172~ubuntu22.04.1*%
%TF.CreationDate,2023-04-27T13:31:00+02:00*%
%TF.ProjectId,Grup3_Tarda_Projecte_Netejaparabrises,47727570-335f-4546-9172-64615f50726f,1.4.27042023*%
%TF.SameCoordinates,Original*%
%TF.FileFunction,Drillmap*%
%TF.FilePolarity,Positive*%
%FSLAX45Y45*%
G04 Gerber Fmt 4.5, Leading zero omitted, Abs format (unit mm)*
G04 Created by KiCad (PCBNEW 7.0.2-6a45011f42~172~ubuntu22.04.1) date 2023-04-27 13:31:00*
%MOMM*%
%LPD*%
G01*
G04 APERTURE LIST*
%ADD10C,0.100000*%
%ADD11C,0.200000*%
%ADD12C,0.320000*%
%ADD13C,0.350000*%
G04 APERTURE END LIST*
D10*
X5336000Y-3273000D02*
X21572000Y-3273000D01*
X21572000Y-15918000D01*
X5336000Y-15918000D01*
X5336000Y-3273000D01*
D11*
D12*
X5569000Y-3502000D02*
X5889000Y-3822000D01*
X5889000Y-3502000D02*
X5569000Y-3822000D01*
X5592000Y-15347000D02*
X5912000Y-15667000D01*
X5912000Y-15347000D02*
X5592000Y-15667000D01*
X20987000Y-15340000D02*
X21307000Y-15660000D01*
X21307000Y-15340000D02*
X20987000Y-15660000D01*
X21008000Y-3509000D02*
X21328000Y-3829000D01*
X21328000Y-3509000D02*
X21008000Y-3829000D01*
D13*
X8995000Y-7312000D02*
G75*
G03*
X8995000Y-7312000I-175000J0D01*
G01*
D11*
X5578619Y-16235524D02*
X5578619Y-16035524D01*
X5578619Y-16035524D02*
X5626238Y-16035524D01*
X5626238Y-16035524D02*
X5654809Y-16045048D01*
X5654809Y-16045048D02*
X5673857Y-16064095D01*
X5673857Y-16064095D02*
X5683381Y-16083143D01*
X5683381Y-16083143D02*
X5692905Y-16121238D01*
X5692905Y-16121238D02*
X5692905Y-16149809D01*
X5692905Y-16149809D02*
X5683381Y-16187905D01*
X5683381Y-16187905D02*
X5673857Y-16206952D01*
X5673857Y-16206952D02*
X5654809Y-16226000D01*
X5654809Y-16226000D02*
X5626238Y-16235524D01*
X5626238Y-16235524D02*
X5578619Y-16235524D01*
X5778619Y-16235524D02*
X5778619Y-16102190D01*
X5778619Y-16140286D02*
X5788143Y-16121238D01*
X5788143Y-16121238D02*
X5797667Y-16111714D01*
X5797667Y-16111714D02*
X5816714Y-16102190D01*
X5816714Y-16102190D02*
X5835762Y-16102190D01*
X5902428Y-16235524D02*
X5902428Y-16102190D01*
X5902428Y-16035524D02*
X5892905Y-16045048D01*
X5892905Y-16045048D02*
X5902428Y-16054571D01*
X5902428Y-16054571D02*
X5911952Y-16045048D01*
X5911952Y-16045048D02*
X5902428Y-16035524D01*
X5902428Y-16035524D02*
X5902428Y-16054571D01*
X6026238Y-16235524D02*
X6007190Y-16226000D01*
X6007190Y-16226000D02*
X5997667Y-16206952D01*
X5997667Y-16206952D02*
X5997667Y-16035524D01*
X6131000Y-16235524D02*
X6111952Y-16226000D01*
X6111952Y-16226000D02*
X6102428Y-16206952D01*
X6102428Y-16206952D02*
X6102428Y-16035524D01*
X6359571Y-16235524D02*
X6359571Y-16035524D01*
X6359571Y-16035524D02*
X6426238Y-16178381D01*
X6426238Y-16178381D02*
X6492905Y-16035524D01*
X6492905Y-16035524D02*
X6492905Y-16235524D01*
X6673857Y-16235524D02*
X6673857Y-16130762D01*
X6673857Y-16130762D02*
X6664333Y-16111714D01*
X6664333Y-16111714D02*
X6645286Y-16102190D01*
X6645286Y-16102190D02*
X6607190Y-16102190D01*
X6607190Y-16102190D02*
X6588143Y-16111714D01*
X6673857Y-16226000D02*
X6654809Y-16235524D01*
X6654809Y-16235524D02*
X6607190Y-16235524D01*
X6607190Y-16235524D02*
X6588143Y-16226000D01*
X6588143Y-16226000D02*
X6578619Y-16206952D01*
X6578619Y-16206952D02*
X6578619Y-16187905D01*
X6578619Y-16187905D02*
X6588143Y-16168857D01*
X6588143Y-16168857D02*
X6607190Y-16159333D01*
X6607190Y-16159333D02*
X6654809Y-16159333D01*
X6654809Y-16159333D02*
X6673857Y-16149809D01*
X6769095Y-16102190D02*
X6769095Y-16302190D01*
X6769095Y-16111714D02*
X6788143Y-16102190D01*
X6788143Y-16102190D02*
X6826238Y-16102190D01*
X6826238Y-16102190D02*
X6845286Y-16111714D01*
X6845286Y-16111714D02*
X6854809Y-16121238D01*
X6854809Y-16121238D02*
X6864333Y-16140286D01*
X6864333Y-16140286D02*
X6864333Y-16197428D01*
X6864333Y-16197428D02*
X6854809Y-16216476D01*
X6854809Y-16216476D02*
X6845286Y-16226000D01*
X6845286Y-16226000D02*
X6826238Y-16235524D01*
X6826238Y-16235524D02*
X6788143Y-16235524D01*
X6788143Y-16235524D02*
X6769095Y-16226000D01*
X6950048Y-16216476D02*
X6959571Y-16226000D01*
X6959571Y-16226000D02*
X6950048Y-16235524D01*
X6950048Y-16235524D02*
X6940524Y-16226000D01*
X6940524Y-16226000D02*
X6950048Y-16216476D01*
X6950048Y-16216476D02*
X6950048Y-16235524D01*
X6950048Y-16111714D02*
X6959571Y-16121238D01*
X6959571Y-16121238D02*
X6950048Y-16130762D01*
X6950048Y-16130762D02*
X6940524Y-16121238D01*
X6940524Y-16121238D02*
X6950048Y-16111714D01*
X6950048Y-16111714D02*
X6950048Y-16130762D01*
X5131000Y-16463000D02*
X5331000Y-16663000D01*
X5331000Y-16463000D02*
X5131000Y-16663000D01*
X5559571Y-16455524D02*
X5683381Y-16455524D01*
X5683381Y-16455524D02*
X5616714Y-16531714D01*
X5616714Y-16531714D02*
X5645286Y-16531714D01*
X5645286Y-16531714D02*
X5664333Y-16541238D01*
X5664333Y-16541238D02*
X5673857Y-16550762D01*
X5673857Y-16550762D02*
X5683381Y-16569809D01*
X5683381Y-16569809D02*
X5683381Y-16617428D01*
X5683381Y-16617428D02*
X5673857Y-16636476D01*
X5673857Y-16636476D02*
X5664333Y-16646000D01*
X5664333Y-16646000D02*
X5645286Y-16655524D01*
X5645286Y-16655524D02*
X5588143Y-16655524D01*
X5588143Y-16655524D02*
X5569095Y-16646000D01*
X5569095Y-16646000D02*
X5559571Y-16636476D01*
X5769095Y-16636476D02*
X5778619Y-16646000D01*
X5778619Y-16646000D02*
X5769095Y-16655524D01*
X5769095Y-16655524D02*
X5759571Y-16646000D01*
X5759571Y-16646000D02*
X5769095Y-16636476D01*
X5769095Y-16636476D02*
X5769095Y-16655524D01*
X5854809Y-16474571D02*
X5864333Y-16465048D01*
X5864333Y-16465048D02*
X5883381Y-16455524D01*
X5883381Y-16455524D02*
X5931000Y-16455524D01*
X5931000Y-16455524D02*
X5950048Y-16465048D01*
X5950048Y-16465048D02*
X5959571Y-16474571D01*
X5959571Y-16474571D02*
X5969095Y-16493619D01*
X5969095Y-16493619D02*
X5969095Y-16512667D01*
X5969095Y-16512667D02*
X5959571Y-16541238D01*
X5959571Y-16541238D02*
X5845286Y-16655524D01*
X5845286Y-16655524D02*
X5969095Y-16655524D01*
X6092905Y-16455524D02*
X6111952Y-16455524D01*
X6111952Y-16455524D02*
X6131000Y-16465048D01*
X6131000Y-16465048D02*
X6140524Y-16474571D01*
X6140524Y-16474571D02*
X6150048Y-16493619D01*
X6150048Y-16493619D02*
X6159571Y-16531714D01*
X6159571Y-16531714D02*
X6159571Y-16579333D01*
X6159571Y-16579333D02*
X6150048Y-16617428D01*
X6150048Y-16617428D02*
X6140524Y-16636476D01*
X6140524Y-16636476D02*
X6131000Y-16646000D01*
X6131000Y-16646000D02*
X6111952Y-16655524D01*
X6111952Y-16655524D02*
X6092905Y-16655524D01*
X6092905Y-16655524D02*
X6073857Y-16646000D01*
X6073857Y-16646000D02*
X6064333Y-16636476D01*
X6064333Y-16636476D02*
X6054809Y-16617428D01*
X6054809Y-16617428D02*
X6045286Y-16579333D01*
X6045286Y-16579333D02*
X6045286Y-16531714D01*
X6045286Y-16531714D02*
X6054809Y-16493619D01*
X6054809Y-16493619D02*
X6064333Y-16474571D01*
X6064333Y-16474571D02*
X6073857Y-16465048D01*
X6073857Y-16465048D02*
X6092905Y-16455524D01*
X6283381Y-16455524D02*
X6302429Y-16455524D01*
X6302429Y-16455524D02*
X6321476Y-16465048D01*
X6321476Y-16465048D02*
X6331000Y-16474571D01*
X6331000Y-16474571D02*
X6340524Y-16493619D01*
X6340524Y-16493619D02*
X6350048Y-16531714D01*
X6350048Y-16531714D02*
X6350048Y-16579333D01*
X6350048Y-16579333D02*
X6340524Y-16617428D01*
X6340524Y-16617428D02*
X6331000Y-16636476D01*
X6331000Y-16636476D02*
X6321476Y-16646000D01*
X6321476Y-16646000D02*
X6302429Y-16655524D01*
X6302429Y-16655524D02*
X6283381Y-16655524D01*
X6283381Y-16655524D02*
X6264333Y-16646000D01*
X6264333Y-16646000D02*
X6254809Y-16636476D01*
X6254809Y-16636476D02*
X6245286Y-16617428D01*
X6245286Y-16617428D02*
X6235762Y-16579333D01*
X6235762Y-16579333D02*
X6235762Y-16531714D01*
X6235762Y-16531714D02*
X6245286Y-16493619D01*
X6245286Y-16493619D02*
X6254809Y-16474571D01*
X6254809Y-16474571D02*
X6264333Y-16465048D01*
X6264333Y-16465048D02*
X6283381Y-16455524D01*
X6435762Y-16655524D02*
X6435762Y-16522190D01*
X6435762Y-16541238D02*
X6445286Y-16531714D01*
X6445286Y-16531714D02*
X6464333Y-16522190D01*
X6464333Y-16522190D02*
X6492905Y-16522190D01*
X6492905Y-16522190D02*
X6511952Y-16531714D01*
X6511952Y-16531714D02*
X6521476Y-16550762D01*
X6521476Y-16550762D02*
X6521476Y-16655524D01*
X6521476Y-16550762D02*
X6531000Y-16531714D01*
X6531000Y-16531714D02*
X6550048Y-16522190D01*
X6550048Y-16522190D02*
X6578619Y-16522190D01*
X6578619Y-16522190D02*
X6597667Y-16531714D01*
X6597667Y-16531714D02*
X6607190Y-16550762D01*
X6607190Y-16550762D02*
X6607190Y-16655524D01*
X6702429Y-16655524D02*
X6702429Y-16522190D01*
X6702429Y-16541238D02*
X6711952Y-16531714D01*
X6711952Y-16531714D02*
X6731000Y-16522190D01*
X6731000Y-16522190D02*
X6759571Y-16522190D01*
X6759571Y-16522190D02*
X6778619Y-16531714D01*
X6778619Y-16531714D02*
X6788143Y-16550762D01*
X6788143Y-16550762D02*
X6788143Y-16655524D01*
X6788143Y-16550762D02*
X6797667Y-16531714D01*
X6797667Y-16531714D02*
X6816714Y-16522190D01*
X6816714Y-16522190D02*
X6845286Y-16522190D01*
X6845286Y-16522190D02*
X6864333Y-16531714D01*
X6864333Y-16531714D02*
X6873857Y-16550762D01*
X6873857Y-16550762D02*
X6873857Y-16655524D01*
X7264333Y-16446000D02*
X7092905Y-16703143D01*
X7521476Y-16455524D02*
X7540524Y-16455524D01*
X7540524Y-16455524D02*
X7559572Y-16465048D01*
X7559572Y-16465048D02*
X7569095Y-16474571D01*
X7569095Y-16474571D02*
X7578619Y-16493619D01*
X7578619Y-16493619D02*
X7588143Y-16531714D01*
X7588143Y-16531714D02*
X7588143Y-16579333D01*
X7588143Y-16579333D02*
X7578619Y-16617428D01*
X7578619Y-16617428D02*
X7569095Y-16636476D01*
X7569095Y-16636476D02*
X7559572Y-16646000D01*
X7559572Y-16646000D02*
X7540524Y-16655524D01*
X7540524Y-16655524D02*
X7521476Y-16655524D01*
X7521476Y-16655524D02*
X7502429Y-16646000D01*
X7502429Y-16646000D02*
X7492905Y-16636476D01*
X7492905Y-16636476D02*
X7483381Y-16617428D01*
X7483381Y-16617428D02*
X7473857Y-16579333D01*
X7473857Y-16579333D02*
X7473857Y-16531714D01*
X7473857Y-16531714D02*
X7483381Y-16493619D01*
X7483381Y-16493619D02*
X7492905Y-16474571D01*
X7492905Y-16474571D02*
X7502429Y-16465048D01*
X7502429Y-16465048D02*
X7521476Y-16455524D01*
X7673857Y-16636476D02*
X7683381Y-16646000D01*
X7683381Y-16646000D02*
X7673857Y-16655524D01*
X7673857Y-16655524D02*
X7664333Y-16646000D01*
X7664333Y-16646000D02*
X7673857Y-16636476D01*
X7673857Y-16636476D02*
X7673857Y-16655524D01*
X7873857Y-16655524D02*
X7759572Y-16655524D01*
X7816714Y-16655524D02*
X7816714Y-16455524D01*
X7816714Y-16455524D02*
X7797667Y-16484095D01*
X7797667Y-16484095D02*
X7778619Y-16503143D01*
X7778619Y-16503143D02*
X7759572Y-16512667D01*
X7950048Y-16474571D02*
X7959572Y-16465048D01*
X7959572Y-16465048D02*
X7978619Y-16455524D01*
X7978619Y-16455524D02*
X8026238Y-16455524D01*
X8026238Y-16455524D02*
X8045286Y-16465048D01*
X8045286Y-16465048D02*
X8054810Y-16474571D01*
X8054810Y-16474571D02*
X8064333Y-16493619D01*
X8064333Y-16493619D02*
X8064333Y-16512667D01*
X8064333Y-16512667D02*
X8054810Y-16541238D01*
X8054810Y-16541238D02*
X7940524Y-16655524D01*
X7940524Y-16655524D02*
X8064333Y-16655524D01*
X8235762Y-16455524D02*
X8197667Y-16455524D01*
X8197667Y-16455524D02*
X8178619Y-16465048D01*
X8178619Y-16465048D02*
X8169095Y-16474571D01*
X8169095Y-16474571D02*
X8150048Y-16503143D01*
X8150048Y-16503143D02*
X8140524Y-16541238D01*
X8140524Y-16541238D02*
X8140524Y-16617428D01*
X8140524Y-16617428D02*
X8150048Y-16636476D01*
X8150048Y-16636476D02*
X8159572Y-16646000D01*
X8159572Y-16646000D02*
X8178619Y-16655524D01*
X8178619Y-16655524D02*
X8216714Y-16655524D01*
X8216714Y-16655524D02*
X8235762Y-16646000D01*
X8235762Y-16646000D02*
X8245286Y-16636476D01*
X8245286Y-16636476D02*
X8254810Y-16617428D01*
X8254810Y-16617428D02*
X8254810Y-16569809D01*
X8254810Y-16569809D02*
X8245286Y-16550762D01*
X8245286Y-16550762D02*
X8235762Y-16541238D01*
X8235762Y-16541238D02*
X8216714Y-16531714D01*
X8216714Y-16531714D02*
X8178619Y-16531714D01*
X8178619Y-16531714D02*
X8159572Y-16541238D01*
X8159572Y-16541238D02*
X8150048Y-16550762D01*
X8150048Y-16550762D02*
X8140524Y-16569809D01*
X8378619Y-16455524D02*
X8397667Y-16455524D01*
X8397667Y-16455524D02*
X8416715Y-16465048D01*
X8416715Y-16465048D02*
X8426238Y-16474571D01*
X8426238Y-16474571D02*
X8435762Y-16493619D01*
X8435762Y-16493619D02*
X8445286Y-16531714D01*
X8445286Y-16531714D02*
X8445286Y-16579333D01*
X8445286Y-16579333D02*
X8435762Y-16617428D01*
X8435762Y-16617428D02*
X8426238Y-16636476D01*
X8426238Y-16636476D02*
X8416715Y-16646000D01*
X8416715Y-16646000D02*
X8397667Y-16655524D01*
X8397667Y-16655524D02*
X8378619Y-16655524D01*
X8378619Y-16655524D02*
X8359572Y-16646000D01*
X8359572Y-16646000D02*
X8350048Y-16636476D01*
X8350048Y-16636476D02*
X8340524Y-16617428D01*
X8340524Y-16617428D02*
X8331000Y-16579333D01*
X8331000Y-16579333D02*
X8331000Y-16531714D01*
X8331000Y-16531714D02*
X8340524Y-16493619D01*
X8340524Y-16493619D02*
X8350048Y-16474571D01*
X8350048Y-16474571D02*
X8359572Y-16465048D01*
X8359572Y-16465048D02*
X8378619Y-16455524D01*
X8521476Y-16455524D02*
X8521476Y-16493619D01*
X8597667Y-16455524D02*
X8597667Y-16493619D01*
X8892905Y-16731714D02*
X8883381Y-16722190D01*
X8883381Y-16722190D02*
X8864334Y-16693619D01*
X8864334Y-16693619D02*
X8854810Y-16674571D01*
X8854810Y-16674571D02*
X8845286Y-16646000D01*
X8845286Y-16646000D02*
X8835762Y-16598381D01*
X8835762Y-16598381D02*
X8835762Y-16560286D01*
X8835762Y-16560286D02*
X8845286Y-16512667D01*
X8845286Y-16512667D02*
X8854810Y-16484095D01*
X8854810Y-16484095D02*
X8864334Y-16465048D01*
X8864334Y-16465048D02*
X8883381Y-16436476D01*
X8883381Y-16436476D02*
X8892905Y-16426952D01*
X9054810Y-16522190D02*
X9054810Y-16655524D01*
X9007191Y-16446000D02*
X8959572Y-16588857D01*
X8959572Y-16588857D02*
X9083381Y-16588857D01*
X9311953Y-16655524D02*
X9311953Y-16455524D01*
X9397667Y-16655524D02*
X9397667Y-16550762D01*
X9397667Y-16550762D02*
X9388143Y-16531714D01*
X9388143Y-16531714D02*
X9369096Y-16522190D01*
X9369096Y-16522190D02*
X9340524Y-16522190D01*
X9340524Y-16522190D02*
X9321477Y-16531714D01*
X9321477Y-16531714D02*
X9311953Y-16541238D01*
X9521477Y-16655524D02*
X9502429Y-16646000D01*
X9502429Y-16646000D02*
X9492905Y-16636476D01*
X9492905Y-16636476D02*
X9483381Y-16617428D01*
X9483381Y-16617428D02*
X9483381Y-16560286D01*
X9483381Y-16560286D02*
X9492905Y-16541238D01*
X9492905Y-16541238D02*
X9502429Y-16531714D01*
X9502429Y-16531714D02*
X9521477Y-16522190D01*
X9521477Y-16522190D02*
X9550048Y-16522190D01*
X9550048Y-16522190D02*
X9569096Y-16531714D01*
X9569096Y-16531714D02*
X9578619Y-16541238D01*
X9578619Y-16541238D02*
X9588143Y-16560286D01*
X9588143Y-16560286D02*
X9588143Y-16617428D01*
X9588143Y-16617428D02*
X9578619Y-16636476D01*
X9578619Y-16636476D02*
X9569096Y-16646000D01*
X9569096Y-16646000D02*
X9550048Y-16655524D01*
X9550048Y-16655524D02*
X9521477Y-16655524D01*
X9702429Y-16655524D02*
X9683381Y-16646000D01*
X9683381Y-16646000D02*
X9673858Y-16626952D01*
X9673858Y-16626952D02*
X9673858Y-16455524D01*
X9854810Y-16646000D02*
X9835762Y-16655524D01*
X9835762Y-16655524D02*
X9797667Y-16655524D01*
X9797667Y-16655524D02*
X9778619Y-16646000D01*
X9778619Y-16646000D02*
X9769096Y-16626952D01*
X9769096Y-16626952D02*
X9769096Y-16550762D01*
X9769096Y-16550762D02*
X9778619Y-16531714D01*
X9778619Y-16531714D02*
X9797667Y-16522190D01*
X9797667Y-16522190D02*
X9835762Y-16522190D01*
X9835762Y-16522190D02*
X9854810Y-16531714D01*
X9854810Y-16531714D02*
X9864334Y-16550762D01*
X9864334Y-16550762D02*
X9864334Y-16569809D01*
X9864334Y-16569809D02*
X9769096Y-16588857D01*
X9940524Y-16646000D02*
X9959572Y-16655524D01*
X9959572Y-16655524D02*
X9997667Y-16655524D01*
X9997667Y-16655524D02*
X10016715Y-16646000D01*
X10016715Y-16646000D02*
X10026239Y-16626952D01*
X10026239Y-16626952D02*
X10026239Y-16617428D01*
X10026239Y-16617428D02*
X10016715Y-16598381D01*
X10016715Y-16598381D02*
X9997667Y-16588857D01*
X9997667Y-16588857D02*
X9969096Y-16588857D01*
X9969096Y-16588857D02*
X9950048Y-16579333D01*
X9950048Y-16579333D02*
X9940524Y-16560286D01*
X9940524Y-16560286D02*
X9940524Y-16550762D01*
X9940524Y-16550762D02*
X9950048Y-16531714D01*
X9950048Y-16531714D02*
X9969096Y-16522190D01*
X9969096Y-16522190D02*
X9997667Y-16522190D01*
X9997667Y-16522190D02*
X10016715Y-16531714D01*
X10092905Y-16731714D02*
X10102429Y-16722190D01*
X10102429Y-16722190D02*
X10121477Y-16693619D01*
X10121477Y-16693619D02*
X10131000Y-16674571D01*
X10131000Y-16674571D02*
X10140524Y-16646000D01*
X10140524Y-16646000D02*
X10150048Y-16598381D01*
X10150048Y-16598381D02*
X10150048Y-16560286D01*
X10150048Y-16560286D02*
X10140524Y-16512667D01*
X10140524Y-16512667D02*
X10131000Y-16484095D01*
X10131000Y-16484095D02*
X10121477Y-16465048D01*
X10121477Y-16465048D02*
X10102429Y-16436476D01*
X10102429Y-16436476D02*
X10092905Y-16426952D01*
X10454810Y-16731714D02*
X10445286Y-16722190D01*
X10445286Y-16722190D02*
X10426239Y-16693619D01*
X10426239Y-16693619D02*
X10416715Y-16674571D01*
X10416715Y-16674571D02*
X10407191Y-16646000D01*
X10407191Y-16646000D02*
X10397667Y-16598381D01*
X10397667Y-16598381D02*
X10397667Y-16560286D01*
X10397667Y-16560286D02*
X10407191Y-16512667D01*
X10407191Y-16512667D02*
X10416715Y-16484095D01*
X10416715Y-16484095D02*
X10426239Y-16465048D01*
X10426239Y-16465048D02*
X10445286Y-16436476D01*
X10445286Y-16436476D02*
X10454810Y-16426952D01*
X10531000Y-16522190D02*
X10531000Y-16655524D01*
X10531000Y-16541238D02*
X10540524Y-16531714D01*
X10540524Y-16531714D02*
X10559572Y-16522190D01*
X10559572Y-16522190D02*
X10588143Y-16522190D01*
X10588143Y-16522190D02*
X10607191Y-16531714D01*
X10607191Y-16531714D02*
X10616715Y-16550762D01*
X10616715Y-16550762D02*
X10616715Y-16655524D01*
X10740524Y-16655524D02*
X10721477Y-16646000D01*
X10721477Y-16646000D02*
X10711953Y-16636476D01*
X10711953Y-16636476D02*
X10702429Y-16617428D01*
X10702429Y-16617428D02*
X10702429Y-16560286D01*
X10702429Y-16560286D02*
X10711953Y-16541238D01*
X10711953Y-16541238D02*
X10721477Y-16531714D01*
X10721477Y-16531714D02*
X10740524Y-16522190D01*
X10740524Y-16522190D02*
X10769096Y-16522190D01*
X10769096Y-16522190D02*
X10788143Y-16531714D01*
X10788143Y-16531714D02*
X10797667Y-16541238D01*
X10797667Y-16541238D02*
X10807191Y-16560286D01*
X10807191Y-16560286D02*
X10807191Y-16617428D01*
X10807191Y-16617428D02*
X10797667Y-16636476D01*
X10797667Y-16636476D02*
X10788143Y-16646000D01*
X10788143Y-16646000D02*
X10769096Y-16655524D01*
X10769096Y-16655524D02*
X10740524Y-16655524D01*
X10864334Y-16522190D02*
X10940524Y-16522190D01*
X10892905Y-16455524D02*
X10892905Y-16626952D01*
X10892905Y-16626952D02*
X10902429Y-16646000D01*
X10902429Y-16646000D02*
X10921477Y-16655524D01*
X10921477Y-16655524D02*
X10940524Y-16655524D01*
X11159572Y-16522190D02*
X11159572Y-16722190D01*
X11159572Y-16531714D02*
X11178620Y-16522190D01*
X11178620Y-16522190D02*
X11216715Y-16522190D01*
X11216715Y-16522190D02*
X11235762Y-16531714D01*
X11235762Y-16531714D02*
X11245286Y-16541238D01*
X11245286Y-16541238D02*
X11254810Y-16560286D01*
X11254810Y-16560286D02*
X11254810Y-16617428D01*
X11254810Y-16617428D02*
X11245286Y-16636476D01*
X11245286Y-16636476D02*
X11235762Y-16646000D01*
X11235762Y-16646000D02*
X11216715Y-16655524D01*
X11216715Y-16655524D02*
X11178620Y-16655524D01*
X11178620Y-16655524D02*
X11159572Y-16646000D01*
X11369096Y-16655524D02*
X11350048Y-16646000D01*
X11350048Y-16646000D02*
X11340524Y-16626952D01*
X11340524Y-16626952D02*
X11340524Y-16455524D01*
X11531000Y-16655524D02*
X11531000Y-16550762D01*
X11531000Y-16550762D02*
X11521477Y-16531714D01*
X11521477Y-16531714D02*
X11502429Y-16522190D01*
X11502429Y-16522190D02*
X11464334Y-16522190D01*
X11464334Y-16522190D02*
X11445286Y-16531714D01*
X11531000Y-16646000D02*
X11511953Y-16655524D01*
X11511953Y-16655524D02*
X11464334Y-16655524D01*
X11464334Y-16655524D02*
X11445286Y-16646000D01*
X11445286Y-16646000D02*
X11435762Y-16626952D01*
X11435762Y-16626952D02*
X11435762Y-16607905D01*
X11435762Y-16607905D02*
X11445286Y-16588857D01*
X11445286Y-16588857D02*
X11464334Y-16579333D01*
X11464334Y-16579333D02*
X11511953Y-16579333D01*
X11511953Y-16579333D02*
X11531000Y-16569809D01*
X11597667Y-16522190D02*
X11673858Y-16522190D01*
X11626239Y-16455524D02*
X11626239Y-16626952D01*
X11626239Y-16626952D02*
X11635762Y-16646000D01*
X11635762Y-16646000D02*
X11654810Y-16655524D01*
X11654810Y-16655524D02*
X11673858Y-16655524D01*
X11816715Y-16646000D02*
X11797667Y-16655524D01*
X11797667Y-16655524D02*
X11759572Y-16655524D01*
X11759572Y-16655524D02*
X11740524Y-16646000D01*
X11740524Y-16646000D02*
X11731000Y-16626952D01*
X11731000Y-16626952D02*
X11731000Y-16550762D01*
X11731000Y-16550762D02*
X11740524Y-16531714D01*
X11740524Y-16531714D02*
X11759572Y-16522190D01*
X11759572Y-16522190D02*
X11797667Y-16522190D01*
X11797667Y-16522190D02*
X11816715Y-16531714D01*
X11816715Y-16531714D02*
X11826239Y-16550762D01*
X11826239Y-16550762D02*
X11826239Y-16569809D01*
X11826239Y-16569809D02*
X11731000Y-16588857D01*
X11997667Y-16655524D02*
X11997667Y-16455524D01*
X11997667Y-16646000D02*
X11978620Y-16655524D01*
X11978620Y-16655524D02*
X11940524Y-16655524D01*
X11940524Y-16655524D02*
X11921477Y-16646000D01*
X11921477Y-16646000D02*
X11911953Y-16636476D01*
X11911953Y-16636476D02*
X11902429Y-16617428D01*
X11902429Y-16617428D02*
X11902429Y-16560286D01*
X11902429Y-16560286D02*
X11911953Y-16541238D01*
X11911953Y-16541238D02*
X11921477Y-16531714D01*
X11921477Y-16531714D02*
X11940524Y-16522190D01*
X11940524Y-16522190D02*
X11978620Y-16522190D01*
X11978620Y-16522190D02*
X11997667Y-16531714D01*
X12073858Y-16731714D02*
X12083381Y-16722190D01*
X12083381Y-16722190D02*
X12102429Y-16693619D01*
X12102429Y-16693619D02*
X12111953Y-16674571D01*
X12111953Y-16674571D02*
X12121477Y-16646000D01*
X12121477Y-16646000D02*
X12131000Y-16598381D01*
X12131000Y-16598381D02*
X12131000Y-16560286D01*
X12131000Y-16560286D02*
X12121477Y-16512667D01*
X12121477Y-16512667D02*
X12111953Y-16484095D01*
X12111953Y-16484095D02*
X12102429Y-16465048D01*
X12102429Y-16465048D02*
X12083381Y-16436476D01*
X12083381Y-16436476D02*
X12073858Y-16426952D01*
X5331000Y-16883000D02*
G75*
G03*
X5331000Y-16883000I-100000J0D01*
G01*
X5559571Y-16775524D02*
X5683381Y-16775524D01*
X5683381Y-16775524D02*
X5616714Y-16851714D01*
X5616714Y-16851714D02*
X5645286Y-16851714D01*
X5645286Y-16851714D02*
X5664333Y-16861238D01*
X5664333Y-16861238D02*
X5673857Y-16870762D01*
X5673857Y-16870762D02*
X5683381Y-16889810D01*
X5683381Y-16889810D02*
X5683381Y-16937429D01*
X5683381Y-16937429D02*
X5673857Y-16956476D01*
X5673857Y-16956476D02*
X5664333Y-16966000D01*
X5664333Y-16966000D02*
X5645286Y-16975524D01*
X5645286Y-16975524D02*
X5588143Y-16975524D01*
X5588143Y-16975524D02*
X5569095Y-16966000D01*
X5569095Y-16966000D02*
X5559571Y-16956476D01*
X5769095Y-16956476D02*
X5778619Y-16966000D01*
X5778619Y-16966000D02*
X5769095Y-16975524D01*
X5769095Y-16975524D02*
X5759571Y-16966000D01*
X5759571Y-16966000D02*
X5769095Y-16956476D01*
X5769095Y-16956476D02*
X5769095Y-16975524D01*
X5959571Y-16775524D02*
X5864333Y-16775524D01*
X5864333Y-16775524D02*
X5854809Y-16870762D01*
X5854809Y-16870762D02*
X5864333Y-16861238D01*
X5864333Y-16861238D02*
X5883381Y-16851714D01*
X5883381Y-16851714D02*
X5931000Y-16851714D01*
X5931000Y-16851714D02*
X5950048Y-16861238D01*
X5950048Y-16861238D02*
X5959571Y-16870762D01*
X5959571Y-16870762D02*
X5969095Y-16889810D01*
X5969095Y-16889810D02*
X5969095Y-16937429D01*
X5969095Y-16937429D02*
X5959571Y-16956476D01*
X5959571Y-16956476D02*
X5950048Y-16966000D01*
X5950048Y-16966000D02*
X5931000Y-16975524D01*
X5931000Y-16975524D02*
X5883381Y-16975524D01*
X5883381Y-16975524D02*
X5864333Y-16966000D01*
X5864333Y-16966000D02*
X5854809Y-16956476D01*
X6092905Y-16775524D02*
X6111952Y-16775524D01*
X6111952Y-16775524D02*
X6131000Y-16785048D01*
X6131000Y-16785048D02*
X6140524Y-16794571D01*
X6140524Y-16794571D02*
X6150048Y-16813619D01*
X6150048Y-16813619D02*
X6159571Y-16851714D01*
X6159571Y-16851714D02*
X6159571Y-16899333D01*
X6159571Y-16899333D02*
X6150048Y-16937429D01*
X6150048Y-16937429D02*
X6140524Y-16956476D01*
X6140524Y-16956476D02*
X6131000Y-16966000D01*
X6131000Y-16966000D02*
X6111952Y-16975524D01*
X6111952Y-16975524D02*
X6092905Y-16975524D01*
X6092905Y-16975524D02*
X6073857Y-16966000D01*
X6073857Y-16966000D02*
X6064333Y-16956476D01*
X6064333Y-16956476D02*
X6054809Y-16937429D01*
X6054809Y-16937429D02*
X6045286Y-16899333D01*
X6045286Y-16899333D02*
X6045286Y-16851714D01*
X6045286Y-16851714D02*
X6054809Y-16813619D01*
X6054809Y-16813619D02*
X6064333Y-16794571D01*
X6064333Y-16794571D02*
X6073857Y-16785048D01*
X6073857Y-16785048D02*
X6092905Y-16775524D01*
X6283381Y-16775524D02*
X6302429Y-16775524D01*
X6302429Y-16775524D02*
X6321476Y-16785048D01*
X6321476Y-16785048D02*
X6331000Y-16794571D01*
X6331000Y-16794571D02*
X6340524Y-16813619D01*
X6340524Y-16813619D02*
X6350048Y-16851714D01*
X6350048Y-16851714D02*
X6350048Y-16899333D01*
X6350048Y-16899333D02*
X6340524Y-16937429D01*
X6340524Y-16937429D02*
X6331000Y-16956476D01*
X6331000Y-16956476D02*
X6321476Y-16966000D01*
X6321476Y-16966000D02*
X6302429Y-16975524D01*
X6302429Y-16975524D02*
X6283381Y-16975524D01*
X6283381Y-16975524D02*
X6264333Y-16966000D01*
X6264333Y-16966000D02*
X6254809Y-16956476D01*
X6254809Y-16956476D02*
X6245286Y-16937429D01*
X6245286Y-16937429D02*
X6235762Y-16899333D01*
X6235762Y-16899333D02*
X6235762Y-16851714D01*
X6235762Y-16851714D02*
X6245286Y-16813619D01*
X6245286Y-16813619D02*
X6254809Y-16794571D01*
X6254809Y-16794571D02*
X6264333Y-16785048D01*
X6264333Y-16785048D02*
X6283381Y-16775524D01*
X6435762Y-16975524D02*
X6435762Y-16842190D01*
X6435762Y-16861238D02*
X6445286Y-16851714D01*
X6445286Y-16851714D02*
X6464333Y-16842190D01*
X6464333Y-16842190D02*
X6492905Y-16842190D01*
X6492905Y-16842190D02*
X6511952Y-16851714D01*
X6511952Y-16851714D02*
X6521476Y-16870762D01*
X6521476Y-16870762D02*
X6521476Y-16975524D01*
X6521476Y-16870762D02*
X6531000Y-16851714D01*
X6531000Y-16851714D02*
X6550048Y-16842190D01*
X6550048Y-16842190D02*
X6578619Y-16842190D01*
X6578619Y-16842190D02*
X6597667Y-16851714D01*
X6597667Y-16851714D02*
X6607190Y-16870762D01*
X6607190Y-16870762D02*
X6607190Y-16975524D01*
X6702429Y-16975524D02*
X6702429Y-16842190D01*
X6702429Y-16861238D02*
X6711952Y-16851714D01*
X6711952Y-16851714D02*
X6731000Y-16842190D01*
X6731000Y-16842190D02*
X6759571Y-16842190D01*
X6759571Y-16842190D02*
X6778619Y-16851714D01*
X6778619Y-16851714D02*
X6788143Y-16870762D01*
X6788143Y-16870762D02*
X6788143Y-16975524D01*
X6788143Y-16870762D02*
X6797667Y-16851714D01*
X6797667Y-16851714D02*
X6816714Y-16842190D01*
X6816714Y-16842190D02*
X6845286Y-16842190D01*
X6845286Y-16842190D02*
X6864333Y-16851714D01*
X6864333Y-16851714D02*
X6873857Y-16870762D01*
X6873857Y-16870762D02*
X6873857Y-16975524D01*
X7264333Y-16766000D02*
X7092905Y-17023143D01*
X7521476Y-16775524D02*
X7540524Y-16775524D01*
X7540524Y-16775524D02*
X7559572Y-16785048D01*
X7559572Y-16785048D02*
X7569095Y-16794571D01*
X7569095Y-16794571D02*
X7578619Y-16813619D01*
X7578619Y-16813619D02*
X7588143Y-16851714D01*
X7588143Y-16851714D02*
X7588143Y-16899333D01*
X7588143Y-16899333D02*
X7578619Y-16937429D01*
X7578619Y-16937429D02*
X7569095Y-16956476D01*
X7569095Y-16956476D02*
X7559572Y-16966000D01*
X7559572Y-16966000D02*
X7540524Y-16975524D01*
X7540524Y-16975524D02*
X7521476Y-16975524D01*
X7521476Y-16975524D02*
X7502429Y-16966000D01*
X7502429Y-16966000D02*
X7492905Y-16956476D01*
X7492905Y-16956476D02*
X7483381Y-16937429D01*
X7483381Y-16937429D02*
X7473857Y-16899333D01*
X7473857Y-16899333D02*
X7473857Y-16851714D01*
X7473857Y-16851714D02*
X7483381Y-16813619D01*
X7483381Y-16813619D02*
X7492905Y-16794571D01*
X7492905Y-16794571D02*
X7502429Y-16785048D01*
X7502429Y-16785048D02*
X7521476Y-16775524D01*
X7673857Y-16956476D02*
X7683381Y-16966000D01*
X7683381Y-16966000D02*
X7673857Y-16975524D01*
X7673857Y-16975524D02*
X7664333Y-16966000D01*
X7664333Y-16966000D02*
X7673857Y-16956476D01*
X7673857Y-16956476D02*
X7673857Y-16975524D01*
X7873857Y-16975524D02*
X7759572Y-16975524D01*
X7816714Y-16975524D02*
X7816714Y-16775524D01*
X7816714Y-16775524D02*
X7797667Y-16804095D01*
X7797667Y-16804095D02*
X7778619Y-16823143D01*
X7778619Y-16823143D02*
X7759572Y-16832667D01*
X7940524Y-16775524D02*
X8064333Y-16775524D01*
X8064333Y-16775524D02*
X7997667Y-16851714D01*
X7997667Y-16851714D02*
X8026238Y-16851714D01*
X8026238Y-16851714D02*
X8045286Y-16861238D01*
X8045286Y-16861238D02*
X8054810Y-16870762D01*
X8054810Y-16870762D02*
X8064333Y-16889810D01*
X8064333Y-16889810D02*
X8064333Y-16937429D01*
X8064333Y-16937429D02*
X8054810Y-16956476D01*
X8054810Y-16956476D02*
X8045286Y-16966000D01*
X8045286Y-16966000D02*
X8026238Y-16975524D01*
X8026238Y-16975524D02*
X7969095Y-16975524D01*
X7969095Y-16975524D02*
X7950048Y-16966000D01*
X7950048Y-16966000D02*
X7940524Y-16956476D01*
X8131000Y-16775524D02*
X8264333Y-16775524D01*
X8264333Y-16775524D02*
X8178619Y-16975524D01*
X8369095Y-16861238D02*
X8350048Y-16851714D01*
X8350048Y-16851714D02*
X8340524Y-16842190D01*
X8340524Y-16842190D02*
X8331000Y-16823143D01*
X8331000Y-16823143D02*
X8331000Y-16813619D01*
X8331000Y-16813619D02*
X8340524Y-16794571D01*
X8340524Y-16794571D02*
X8350048Y-16785048D01*
X8350048Y-16785048D02*
X8369095Y-16775524D01*
X8369095Y-16775524D02*
X8407191Y-16775524D01*
X8407191Y-16775524D02*
X8426238Y-16785048D01*
X8426238Y-16785048D02*
X8435762Y-16794571D01*
X8435762Y-16794571D02*
X8445286Y-16813619D01*
X8445286Y-16813619D02*
X8445286Y-16823143D01*
X8445286Y-16823143D02*
X8435762Y-16842190D01*
X8435762Y-16842190D02*
X8426238Y-16851714D01*
X8426238Y-16851714D02*
X8407191Y-16861238D01*
X8407191Y-16861238D02*
X8369095Y-16861238D01*
X8369095Y-16861238D02*
X8350048Y-16870762D01*
X8350048Y-16870762D02*
X8340524Y-16880286D01*
X8340524Y-16880286D02*
X8331000Y-16899333D01*
X8331000Y-16899333D02*
X8331000Y-16937429D01*
X8331000Y-16937429D02*
X8340524Y-16956476D01*
X8340524Y-16956476D02*
X8350048Y-16966000D01*
X8350048Y-16966000D02*
X8369095Y-16975524D01*
X8369095Y-16975524D02*
X8407191Y-16975524D01*
X8407191Y-16975524D02*
X8426238Y-16966000D01*
X8426238Y-16966000D02*
X8435762Y-16956476D01*
X8435762Y-16956476D02*
X8445286Y-16937429D01*
X8445286Y-16937429D02*
X8445286Y-16899333D01*
X8445286Y-16899333D02*
X8435762Y-16880286D01*
X8435762Y-16880286D02*
X8426238Y-16870762D01*
X8426238Y-16870762D02*
X8407191Y-16861238D01*
X8521476Y-16775524D02*
X8521476Y-16813619D01*
X8597667Y-16775524D02*
X8597667Y-16813619D01*
X8892905Y-17051714D02*
X8883381Y-17042190D01*
X8883381Y-17042190D02*
X8864334Y-17013619D01*
X8864334Y-17013619D02*
X8854810Y-16994571D01*
X8854810Y-16994571D02*
X8845286Y-16966000D01*
X8845286Y-16966000D02*
X8835762Y-16918381D01*
X8835762Y-16918381D02*
X8835762Y-16880286D01*
X8835762Y-16880286D02*
X8845286Y-16832667D01*
X8845286Y-16832667D02*
X8854810Y-16804095D01*
X8854810Y-16804095D02*
X8864334Y-16785048D01*
X8864334Y-16785048D02*
X8883381Y-16756476D01*
X8883381Y-16756476D02*
X8892905Y-16746952D01*
X9073857Y-16975524D02*
X8959572Y-16975524D01*
X9016715Y-16975524D02*
X9016715Y-16775524D01*
X9016715Y-16775524D02*
X8997667Y-16804095D01*
X8997667Y-16804095D02*
X8978619Y-16823143D01*
X8978619Y-16823143D02*
X8959572Y-16832667D01*
X9311953Y-16975524D02*
X9311953Y-16775524D01*
X9397667Y-16975524D02*
X9397667Y-16870762D01*
X9397667Y-16870762D02*
X9388143Y-16851714D01*
X9388143Y-16851714D02*
X9369096Y-16842190D01*
X9369096Y-16842190D02*
X9340524Y-16842190D01*
X9340524Y-16842190D02*
X9321477Y-16851714D01*
X9321477Y-16851714D02*
X9311953Y-16861238D01*
X9521477Y-16975524D02*
X9502429Y-16966000D01*
X9502429Y-16966000D02*
X9492905Y-16956476D01*
X9492905Y-16956476D02*
X9483381Y-16937429D01*
X9483381Y-16937429D02*
X9483381Y-16880286D01*
X9483381Y-16880286D02*
X9492905Y-16861238D01*
X9492905Y-16861238D02*
X9502429Y-16851714D01*
X9502429Y-16851714D02*
X9521477Y-16842190D01*
X9521477Y-16842190D02*
X9550048Y-16842190D01*
X9550048Y-16842190D02*
X9569096Y-16851714D01*
X9569096Y-16851714D02*
X9578619Y-16861238D01*
X9578619Y-16861238D02*
X9588143Y-16880286D01*
X9588143Y-16880286D02*
X9588143Y-16937429D01*
X9588143Y-16937429D02*
X9578619Y-16956476D01*
X9578619Y-16956476D02*
X9569096Y-16966000D01*
X9569096Y-16966000D02*
X9550048Y-16975524D01*
X9550048Y-16975524D02*
X9521477Y-16975524D01*
X9702429Y-16975524D02*
X9683381Y-16966000D01*
X9683381Y-16966000D02*
X9673858Y-16946952D01*
X9673858Y-16946952D02*
X9673858Y-16775524D01*
X9854810Y-16966000D02*
X9835762Y-16975524D01*
X9835762Y-16975524D02*
X9797667Y-16975524D01*
X9797667Y-16975524D02*
X9778619Y-16966000D01*
X9778619Y-16966000D02*
X9769096Y-16946952D01*
X9769096Y-16946952D02*
X9769096Y-16870762D01*
X9769096Y-16870762D02*
X9778619Y-16851714D01*
X9778619Y-16851714D02*
X9797667Y-16842190D01*
X9797667Y-16842190D02*
X9835762Y-16842190D01*
X9835762Y-16842190D02*
X9854810Y-16851714D01*
X9854810Y-16851714D02*
X9864334Y-16870762D01*
X9864334Y-16870762D02*
X9864334Y-16889810D01*
X9864334Y-16889810D02*
X9769096Y-16908857D01*
X9931000Y-17051714D02*
X9940524Y-17042190D01*
X9940524Y-17042190D02*
X9959572Y-17013619D01*
X9959572Y-17013619D02*
X9969096Y-16994571D01*
X9969096Y-16994571D02*
X9978619Y-16966000D01*
X9978619Y-16966000D02*
X9988143Y-16918381D01*
X9988143Y-16918381D02*
X9988143Y-16880286D01*
X9988143Y-16880286D02*
X9978619Y-16832667D01*
X9978619Y-16832667D02*
X9969096Y-16804095D01*
X9969096Y-16804095D02*
X9959572Y-16785048D01*
X9959572Y-16785048D02*
X9940524Y-16756476D01*
X9940524Y-16756476D02*
X9931000Y-16746952D01*
X10292905Y-17051714D02*
X10283381Y-17042190D01*
X10283381Y-17042190D02*
X10264334Y-17013619D01*
X10264334Y-17013619D02*
X10254810Y-16994571D01*
X10254810Y-16994571D02*
X10245286Y-16966000D01*
X10245286Y-16966000D02*
X10235762Y-16918381D01*
X10235762Y-16918381D02*
X10235762Y-16880286D01*
X10235762Y-16880286D02*
X10245286Y-16832667D01*
X10245286Y-16832667D02*
X10254810Y-16804095D01*
X10254810Y-16804095D02*
X10264334Y-16785048D01*
X10264334Y-16785048D02*
X10283381Y-16756476D01*
X10283381Y-16756476D02*
X10292905Y-16746952D01*
X10369096Y-16842190D02*
X10369096Y-16975524D01*
X10369096Y-16861238D02*
X10378619Y-16851714D01*
X10378619Y-16851714D02*
X10397667Y-16842190D01*
X10397667Y-16842190D02*
X10426239Y-16842190D01*
X10426239Y-16842190D02*
X10445286Y-16851714D01*
X10445286Y-16851714D02*
X10454810Y-16870762D01*
X10454810Y-16870762D02*
X10454810Y-16975524D01*
X10578619Y-16975524D02*
X10559572Y-16966000D01*
X10559572Y-16966000D02*
X10550048Y-16956476D01*
X10550048Y-16956476D02*
X10540524Y-16937429D01*
X10540524Y-16937429D02*
X10540524Y-16880286D01*
X10540524Y-16880286D02*
X10550048Y-16861238D01*
X10550048Y-16861238D02*
X10559572Y-16851714D01*
X10559572Y-16851714D02*
X10578619Y-16842190D01*
X10578619Y-16842190D02*
X10607191Y-16842190D01*
X10607191Y-16842190D02*
X10626239Y-16851714D01*
X10626239Y-16851714D02*
X10635762Y-16861238D01*
X10635762Y-16861238D02*
X10645286Y-16880286D01*
X10645286Y-16880286D02*
X10645286Y-16937429D01*
X10645286Y-16937429D02*
X10635762Y-16956476D01*
X10635762Y-16956476D02*
X10626239Y-16966000D01*
X10626239Y-16966000D02*
X10607191Y-16975524D01*
X10607191Y-16975524D02*
X10578619Y-16975524D01*
X10702429Y-16842190D02*
X10778619Y-16842190D01*
X10731000Y-16775524D02*
X10731000Y-16946952D01*
X10731000Y-16946952D02*
X10740524Y-16966000D01*
X10740524Y-16966000D02*
X10759572Y-16975524D01*
X10759572Y-16975524D02*
X10778619Y-16975524D01*
X10997667Y-16842190D02*
X10997667Y-17042190D01*
X10997667Y-16851714D02*
X11016715Y-16842190D01*
X11016715Y-16842190D02*
X11054810Y-16842190D01*
X11054810Y-16842190D02*
X11073858Y-16851714D01*
X11073858Y-16851714D02*
X11083381Y-16861238D01*
X11083381Y-16861238D02*
X11092905Y-16880286D01*
X11092905Y-16880286D02*
X11092905Y-16937429D01*
X11092905Y-16937429D02*
X11083381Y-16956476D01*
X11083381Y-16956476D02*
X11073858Y-16966000D01*
X11073858Y-16966000D02*
X11054810Y-16975524D01*
X11054810Y-16975524D02*
X11016715Y-16975524D01*
X11016715Y-16975524D02*
X10997667Y-16966000D01*
X11207191Y-16975524D02*
X11188143Y-16966000D01*
X11188143Y-16966000D02*
X11178620Y-16946952D01*
X11178620Y-16946952D02*
X11178620Y-16775524D01*
X11369096Y-16975524D02*
X11369096Y-16870762D01*
X11369096Y-16870762D02*
X11359572Y-16851714D01*
X11359572Y-16851714D02*
X11340524Y-16842190D01*
X11340524Y-16842190D02*
X11302429Y-16842190D01*
X11302429Y-16842190D02*
X11283381Y-16851714D01*
X11369096Y-16966000D02*
X11350048Y-16975524D01*
X11350048Y-16975524D02*
X11302429Y-16975524D01*
X11302429Y-16975524D02*
X11283381Y-16966000D01*
X11283381Y-16966000D02*
X11273858Y-16946952D01*
X11273858Y-16946952D02*
X11273858Y-16927905D01*
X11273858Y-16927905D02*
X11283381Y-16908857D01*
X11283381Y-16908857D02*
X11302429Y-16899333D01*
X11302429Y-16899333D02*
X11350048Y-16899333D01*
X11350048Y-16899333D02*
X11369096Y-16889810D01*
X11435762Y-16842190D02*
X11511953Y-16842190D01*
X11464334Y-16775524D02*
X11464334Y-16946952D01*
X11464334Y-16946952D02*
X11473858Y-16966000D01*
X11473858Y-16966000D02*
X11492905Y-16975524D01*
X11492905Y-16975524D02*
X11511953Y-16975524D01*
X11654810Y-16966000D02*
X11635762Y-16975524D01*
X11635762Y-16975524D02*
X11597667Y-16975524D01*
X11597667Y-16975524D02*
X11578619Y-16966000D01*
X11578619Y-16966000D02*
X11569096Y-16946952D01*
X11569096Y-16946952D02*
X11569096Y-16870762D01*
X11569096Y-16870762D02*
X11578619Y-16851714D01*
X11578619Y-16851714D02*
X11597667Y-16842190D01*
X11597667Y-16842190D02*
X11635762Y-16842190D01*
X11635762Y-16842190D02*
X11654810Y-16851714D01*
X11654810Y-16851714D02*
X11664334Y-16870762D01*
X11664334Y-16870762D02*
X11664334Y-16889810D01*
X11664334Y-16889810D02*
X11569096Y-16908857D01*
X11835762Y-16975524D02*
X11835762Y-16775524D01*
X11835762Y-16966000D02*
X11816715Y-16975524D01*
X11816715Y-16975524D02*
X11778619Y-16975524D01*
X11778619Y-16975524D02*
X11759572Y-16966000D01*
X11759572Y-16966000D02*
X11750048Y-16956476D01*
X11750048Y-16956476D02*
X11740524Y-16937429D01*
X11740524Y-16937429D02*
X11740524Y-16880286D01*
X11740524Y-16880286D02*
X11750048Y-16861238D01*
X11750048Y-16861238D02*
X11759572Y-16851714D01*
X11759572Y-16851714D02*
X11778619Y-16842190D01*
X11778619Y-16842190D02*
X11816715Y-16842190D01*
X11816715Y-16842190D02*
X11835762Y-16851714D01*
X11911953Y-17051714D02*
X11921477Y-17042190D01*
X11921477Y-17042190D02*
X11940524Y-17013619D01*
X11940524Y-17013619D02*
X11950048Y-16994571D01*
X11950048Y-16994571D02*
X11959572Y-16966000D01*
X11959572Y-16966000D02*
X11969096Y-16918381D01*
X11969096Y-16918381D02*
X11969096Y-16880286D01*
X11969096Y-16880286D02*
X11959572Y-16832667D01*
X11959572Y-16832667D02*
X11950048Y-16804095D01*
X11950048Y-16804095D02*
X11940524Y-16785048D01*
X11940524Y-16785048D02*
X11921477Y-16756476D01*
X11921477Y-16756476D02*
X11911953Y-16746952D01*
M02*
