%TF.GenerationSoftware,KiCad,Pcbnew,7.0.2-6a45011f42~172~ubuntu22.04.1*%
%TF.CreationDate,2023-04-27T13:30:22+02:00*%
%TF.ProjectId,Grup3_Tarda_Projecte_Netejaparabrises,47727570-335f-4546-9172-64615f50726f,1.4.27042023*%
%TF.SameCoordinates,Original*%
%TF.FileFunction,Soldermask,Bot*%
%TF.FilePolarity,Negative*%
%FSLAX46Y46*%
G04 Gerber Fmt 4.6, Leading zero omitted, Abs format (unit mm)*
G04 Created by KiCad (PCBNEW 7.0.2-6a45011f42~172~ubuntu22.04.1) date 2023-04-27 13:30:22*
%MOMM*%
%LPD*%
G01*
G04 APERTURE LIST*
%ADD10C,3.200000*%
%ADD11R,1.700000X1.700000*%
%ADD12O,1.700000X1.700000*%
%ADD13R,2.600000X2.600000*%
%ADD14C,2.600000*%
%ADD15C,2.100000*%
%ADD16C,3.150000*%
%ADD17C,3.600000*%
%ADD18R,1.222000X1.222000*%
%ADD19C,1.222000*%
%ADD20R,3.200000X3.200000*%
%ADD21O,3.200000X3.200000*%
%ADD22R,2.200000X2.200000*%
%ADD23O,2.200000X2.200000*%
%ADD24O,3.500000X3.500000*%
%ADD25R,1.905000X2.000000*%
%ADD26O,1.905000X2.000000*%
%ADD27R,10.000000X5.600000*%
%ADD28C,4.000000*%
%ADD29R,1.600000X1.600000*%
%ADD30C,1.600000*%
G04 APERTURE END LIST*
D10*
%TO.C,REF98*%
X57520000Y-155070000D03*
%TD*%
D11*
%TO.C,J7*%
X78680000Y-34605000D03*
D12*
X76140000Y-34605000D03*
%TD*%
D13*
%TO.C,J8*%
X85255000Y-153645000D03*
D14*
X90335000Y-153645000D03*
%TD*%
D13*
%TO.C,J10*%
X58795000Y-99845000D03*
D14*
X58795000Y-104925000D03*
%TD*%
D15*
%TO.C,K3*%
X99725000Y-129230000D03*
X103925000Y-129230000D03*
D16*
X93725000Y-125930000D03*
D17*
X96025000Y-141330000D03*
D16*
X93725000Y-129230000D03*
D17*
X107025000Y-141330000D03*
X109725000Y-127030000D03*
%TD*%
D10*
%TO.C,REF99*%
X57290000Y-36620000D03*
%TD*%
%TO.C,REF97*%
X211470000Y-155000000D03*
%TD*%
D18*
%TO.C,RPOT1*%
X69830000Y-41304500D03*
D19*
X72370000Y-43844500D03*
X69830000Y-46384500D03*
%TD*%
D20*
%TO.C,D12*%
X208350000Y-116940000D03*
D21*
X193110000Y-116940000D03*
%TD*%
D15*
%TO.C,K2*%
X114210000Y-92900000D03*
X118410000Y-92900000D03*
D16*
X108210000Y-89600000D03*
D17*
X110510000Y-105000000D03*
D16*
X108210000Y-92900000D03*
D17*
X121510000Y-105000000D03*
X124210000Y-90700000D03*
%TD*%
D20*
%TO.C,D6*%
X115620000Y-116340000D03*
D21*
X100380000Y-116340000D03*
%TD*%
D13*
%TO.C,J9*%
X145705000Y-153645000D03*
D14*
X150785000Y-153645000D03*
%TD*%
D22*
%TO.C,D1*%
X66440000Y-70200000D03*
D23*
X66440000Y-60040000D03*
%TD*%
D15*
%TO.C,K4*%
X68760000Y-129230000D03*
X72960000Y-129230000D03*
D16*
X62760000Y-125930000D03*
D17*
X65060000Y-141330000D03*
D16*
X62760000Y-129230000D03*
D17*
X76060000Y-141330000D03*
X78760000Y-127030000D03*
%TD*%
D11*
%TO.C,J2*%
X201390000Y-34780000D03*
D12*
X198850000Y-34780000D03*
X196310000Y-34780000D03*
X193770000Y-34780000D03*
X191230000Y-34780000D03*
X188690000Y-34780000D03*
%TD*%
D10*
%TO.C,REF96*%
X211680000Y-36690000D03*
%TD*%
D24*
%TO.C,IC1*%
X88200000Y-73120000D03*
D25*
X90740000Y-56460000D03*
D26*
X88200000Y-56460000D03*
D27*
X88190000Y-73110000D03*
D26*
X85660000Y-56460000D03*
%TD*%
D28*
%TO.C,J6*%
X181445000Y-40240000D03*
X156445000Y-40240000D03*
D29*
X163405000Y-40540000D03*
D30*
X166175000Y-40540000D03*
X168945000Y-40540000D03*
X171715000Y-40540000D03*
X174485000Y-40540000D03*
X164790000Y-37700000D03*
X167560000Y-37700000D03*
X170330000Y-37700000D03*
X173100000Y-37700000D03*
%TD*%
D20*
%TO.C,D4*%
X94440000Y-80480000D03*
D21*
X79200000Y-80480000D03*
%TD*%
D11*
%TO.C,J13*%
X93860000Y-34600000D03*
D12*
X96400000Y-34600000D03*
%TD*%
D20*
%TO.C,D10*%
X123950000Y-116430000D03*
D21*
X139190000Y-116430000D03*
%TD*%
D11*
%TO.C,J3*%
X213810000Y-61490000D03*
D12*
X213810000Y-64030000D03*
X213810000Y-66570000D03*
X213810000Y-69110000D03*
X213810000Y-71650000D03*
%TD*%
D13*
%TO.C,J1*%
X58575000Y-62790000D03*
D14*
X58575000Y-67870000D03*
%TD*%
D11*
%TO.C,J14*%
X101210000Y-34600000D03*
D12*
X103750000Y-34600000D03*
%TD*%
D15*
%TO.C,K1*%
X78760000Y-92900000D03*
X82960000Y-92900000D03*
D16*
X72760000Y-89600000D03*
D17*
X75060000Y-105000000D03*
D16*
X72760000Y-92900000D03*
D17*
X86060000Y-105000000D03*
X88760000Y-90700000D03*
%TD*%
D28*
%TO.C,J5*%
X136120000Y-40210000D03*
X111120000Y-40210000D03*
D29*
X118080000Y-40510000D03*
D30*
X120850000Y-40510000D03*
X123620000Y-40510000D03*
X126390000Y-40510000D03*
X129160000Y-40510000D03*
X119465000Y-37670000D03*
X122235000Y-37670000D03*
X125005000Y-37670000D03*
X127775000Y-37670000D03*
%TD*%
D15*
%TO.C,K9*%
X192790000Y-129200000D03*
X196990000Y-129200000D03*
D16*
X186790000Y-125900000D03*
D17*
X189090000Y-141300000D03*
D16*
X186790000Y-129200000D03*
D17*
X200090000Y-141300000D03*
X202790000Y-127000000D03*
%TD*%
D13*
%TO.C,J11*%
X210005000Y-104985000D03*
D14*
X210005000Y-99905000D03*
%TD*%
D20*
%TO.C,D9*%
X162710000Y-80410000D03*
D21*
X147470000Y-80410000D03*
%TD*%
D15*
%TO.C,K7*%
X128990000Y-129105000D03*
X133190000Y-129105000D03*
D16*
X122990000Y-125805000D03*
D17*
X125290000Y-141205000D03*
D16*
X122990000Y-129105000D03*
D17*
X136290000Y-141205000D03*
X138990000Y-126905000D03*
%TD*%
D20*
%TO.C,D11*%
X177990000Y-116640000D03*
D21*
X162750000Y-116640000D03*
%TD*%
D20*
%TO.C,D7*%
X64630000Y-116340000D03*
D21*
X79870000Y-116340000D03*
%TD*%
D20*
%TO.C,D8*%
X195640000Y-80340000D03*
D21*
X180400000Y-80340000D03*
%TD*%
D15*
%TO.C,K5*%
X179090000Y-92820000D03*
X183290000Y-92820000D03*
D16*
X173090000Y-89520000D03*
D17*
X175390000Y-104920000D03*
D16*
X173090000Y-92820000D03*
D17*
X186390000Y-104920000D03*
X189090000Y-90620000D03*
%TD*%
D15*
%TO.C,K6*%
X146250000Y-92740000D03*
X150450000Y-92740000D03*
D16*
X140250000Y-89440000D03*
D17*
X142550000Y-104840000D03*
D16*
X140250000Y-92740000D03*
D17*
X153550000Y-104840000D03*
X156250000Y-90540000D03*
%TD*%
D13*
%TO.C,J12*%
X194005000Y-153645000D03*
D14*
X199085000Y-153645000D03*
%TD*%
D20*
%TO.C,D5*%
X130540000Y-80425000D03*
D21*
X115300000Y-80425000D03*
%TD*%
D11*
%TO.C,J4*%
X213770000Y-52610000D03*
D12*
X213770000Y-55150000D03*
X213770000Y-57690000D03*
%TD*%
D15*
%TO.C,K8*%
X161950000Y-129190000D03*
X166150000Y-129190000D03*
D16*
X155950000Y-125890000D03*
D17*
X158250000Y-141290000D03*
D16*
X155950000Y-129190000D03*
D17*
X169250000Y-141290000D03*
X171950000Y-126990000D03*
%TD*%
M02*
